<svg xmlns="http://www.w3.org/2000/svg" xmlns:xlink="http://www.w3.org/1999/xlink" width="1080" zoomAndPan="magnify" viewBox="0 0 810 809.999993" height="1080" preserveAspectRatio="xMidYMid meet" version="1.0"><defs><g/><clipPath id="fea8f0a458"><rect x="0" width="562" y="0" height="72"/></clipPath><clipPath id="9cf88fa04a"><path d="M 0.441406 35 L 91 35 L 91 125 L 0.441406 125 Z M 0.441406 35 " clip-rule="nonzero"/></clipPath><clipPath id="4e19d656f3"><rect x="0" width="95" y="0" height="156"/></clipPath><clipPath id="576e3f8661"><rect x="0" width="50" y="0" height="156"/></clipPath><clipPath id="d0272e6ebf"><rect x="0" width="45" y="0" height="158"/></clipPath><clipPath id="045bee0bb8"><rect x="0" width="66" y="0" height="161"/></clipPath><clipPath id="d2ba8c0730"><rect x="0" width="100" y="0" height="167"/></clipPath><clipPath id="8fa5a5f1a3"><rect x="0" width="91" y="0" height="129"/></clipPath><clipPath id="8b1f90a982"><rect x="0" width="49" y="0" height="171"/></clipPath><clipPath id="815eb0381b"><rect x="0" width="159" y="0" height="151"/></clipPath><clipPath id="6fc8f931f2"><rect x="0" width="72" y="0" height="160"/></clipPath><clipPath id="53e75743c7"><rect x="0" width="43" y="0" height="162"/></clipPath><clipPath id="9dffb7dcf9"><rect x="0" width="71" y="0" height="158"/></clipPath></defs><g transform="matrix(1, 0, 0, 1, 127, 454)"><g clip-path="url(#fea8f0a458)"><g fill="#31a768" fill-opacity="1"><g transform="translate(1.553064, 54.873294)"><g><path d="M 33.859375 -23.671875 C 36.222656 -20.859375 37.40625 -17.707031 37.40625 -14.21875 C 37.320312 -10.195312 35.945312 -6.832031 33.28125 -4.125 C 30.613281 -1.414062 27.367188 -0.0625 23.546875 -0.0625 L 7.703125 -0.0625 C 4.898438 -0.0625 3.253906 -0.820312 2.765625 -2.34375 C 2.523438 -3.03125 2.40625 -4.078125 2.40625 -5.484375 L 2.40625 -38.90625 C 2.40625 -39.875 2.4375 -40.578125 2.5 -41.015625 C 2.5625 -41.460938 2.753906 -41.984375 3.078125 -42.578125 C 3.640625 -43.671875 5.203125 -44.21875 7.765625 -44.21875 L 22.953125 -44.21875 C 26.640625 -44.21875 29.726562 -42.929688 32.21875 -40.359375 C 34.832031 -37.742188 36.140625 -34.609375 36.140625 -30.953125 C 36.140625 -28.304688 35.378906 -25.878906 33.859375 -23.671875 Z M 26.75 -14.8125 C 26.75 -15.78125 26.632812 -16.546875 26.40625 -17.109375 C 26.1875 -17.671875 25.816406 -18.070312 25.296875 -18.3125 C 24.492188 -18.632812 23.367188 -18.796875 21.921875 -18.796875 C 20.472656 -18.796875 19.390625 -19.078125 18.671875 -19.640625 C 17.953125 -20.203125 17.59375 -21.351562 17.59375 -23.09375 C 17.59375 -24.84375 17.960938 -26 18.703125 -26.5625 C 19.441406 -27.125 20.675781 -27.40625 22.40625 -27.40625 C 24.007812 -27.40625 24.972656 -27.828125 25.296875 -28.671875 C 25.421875 -29.109375 25.484375 -29.828125 25.484375 -30.828125 C 25.484375 -31.835938 25.148438 -32.539062 24.484375 -32.9375 C 23.816406 -33.34375 22.820312 -33.546875 21.5 -33.546875 L 13.078125 -33.546875 L 13.078125 -10.71875 L 22.953125 -10.71875 C 25.484375 -10.71875 26.75 -12.082031 26.75 -14.8125 Z M 26.75 -14.8125 "/></g></g></g><g fill="#31a768" fill-opacity="1"><g transform="translate(40.45668, 54.873294)"><g><path d="M 23.96875 -31.375 C 24.738281 -31.132812 25.375 -30.722656 25.875 -30.140625 C 26.375 -29.566406 26.625 -28.632812 26.625 -27.34375 C 26.625 -26.0625 26.238281 -24.65625 25.46875 -23.125 C 24.707031 -21.601562 23.609375 -20.84375 22.171875 -20.84375 C 21.441406 -20.84375 20.742188 -21.003906 20.078125 -21.328125 C 19.421875 -21.648438 18.550781 -21.8125 17.46875 -21.8125 C 16.382812 -21.8125 15.367188 -21.425781 14.421875 -20.65625 C 13.484375 -19.894531 13.015625 -18.972656 13.015625 -17.890625 L 13.015625 -5.234375 C 13.015625 -4.316406 12.984375 -3.625 12.921875 -3.15625 C 12.859375 -2.695312 12.664062 -2.164062 12.34375 -1.5625 C 11.738281 -0.519531 10.175781 0 7.65625 0 C 5.726562 0 4.34375 -0.34375 3.5 -1.03125 C 2.851562 -1.59375 2.488281 -2.453125 2.40625 -3.609375 C 2.40625 -4.015625 2.40625 -4.597656 2.40625 -5.359375 L 2.40625 -26.5 C 2.40625 -27.425781 2.4375 -28.117188 2.5 -28.578125 C 2.5625 -29.046875 2.734375 -29.554688 3.015625 -30.109375 C 3.578125 -31.203125 5.140625 -31.75 7.703125 -31.75 C 10.117188 -31.75 11.628906 -31.285156 12.234375 -30.359375 C 12.671875 -29.710938 12.890625 -29.050781 12.890625 -28.375 C 13.085938 -28.65625 13.375 -28.992188 13.75 -29.390625 C 14.132812 -29.796875 14.945312 -30.335938 16.1875 -31.015625 C 17.4375 -31.703125 18.535156 -32.046875 19.484375 -32.046875 C 20.429688 -32.046875 21.222656 -31.992188 21.859375 -31.890625 C 22.503906 -31.796875 23.207031 -31.625 23.96875 -31.375 Z M 23.96875 -31.375 "/></g></g></g><g fill="#31a768" fill-opacity="1"><g transform="translate(67.978271, 54.873294)"><g><path d="M 2.40625 -26.4375 C 2.40625 -27.363281 2.4375 -28.054688 2.5 -28.515625 C 2.5625 -28.984375 2.734375 -29.515625 3.015625 -30.109375 C 3.578125 -31.160156 5.140625 -31.6875 7.703125 -31.6875 C 9.628906 -31.6875 11 -31.34375 11.8125 -30.65625 C 12.488281 -30.09375 12.847656 -29.226562 12.890625 -28.0625 C 12.929688 -27.664062 12.953125 -27.085938 12.953125 -26.328125 L 12.953125 -5.234375 C 12.953125 -4.316406 12.921875 -3.625 12.859375 -3.15625 C 12.796875 -2.695312 12.601562 -2.164062 12.28125 -1.5625 C 11.757812 -0.519531 10.21875 0 7.65625 0 C 5.125 0 3.578125 -0.539062 3.015625 -1.625 C 2.734375 -2.226562 2.5625 -2.75 2.5 -3.1875 C 2.4375 -3.632812 2.40625 -4.335938 2.40625 -5.296875 Z M 12.3125 -37.609375 C 12.007812 -37.035156 11.476562 -36.625 10.71875 -36.375 C 9.957031 -36.132812 8.941406 -36.015625 7.671875 -36.015625 C 6.410156 -36.015625 5.398438 -36.132812 4.640625 -36.375 C 3.878906 -36.625 3.347656 -37.046875 3.046875 -37.640625 C 2.742188 -38.242188 2.5625 -38.773438 2.5 -39.234375 C 2.4375 -39.703125 2.40625 -40.394531 2.40625 -41.3125 C 2.40625 -42.238281 2.4375 -42.929688 2.5 -43.390625 C 2.5625 -43.859375 2.734375 -44.375 3.015625 -44.9375 C 3.578125 -46.019531 5.140625 -46.5625 7.703125 -46.5625 C 10.234375 -46.5625 11.757812 -46.019531 12.28125 -44.9375 C 12.601562 -44.332031 12.796875 -43.796875 12.859375 -43.328125 C 12.921875 -42.867188 12.953125 -42.175781 12.953125 -41.25 C 12.953125 -40.332031 12.921875 -39.640625 12.859375 -39.171875 C 12.796875 -38.710938 12.613281 -38.191406 12.3125 -37.609375 Z M 12.3125 -37.609375 "/></g></g></g><g fill="#31a768" fill-opacity="1"><g transform="translate(83.334951, 54.873294)"><g><path d="M 20.0625 -31.75 C 24.070312 -31.75 27.410156 -30.210938 30.078125 -27.140625 C 32.753906 -24.066406 34.09375 -20.320312 34.09375 -15.90625 L 34.09375 -5.296875 C 34.09375 -4.378906 34.0625 -3.6875 34 -3.21875 C 33.9375 -2.757812 33.765625 -2.25 33.484375 -1.6875 C 32.921875 -0.601562 31.359375 -0.0625 28.796875 -0.0625 C 25.941406 -0.0625 24.296875 -0.800781 23.859375 -2.28125 C 23.609375 -2.96875 23.484375 -3.992188 23.484375 -5.359375 L 23.484375 -15.96875 C 23.484375 -17.613281 23.007812 -18.894531 22.0625 -19.8125 C 21.125 -20.738281 19.863281 -21.203125 18.28125 -21.203125 C 16.695312 -21.203125 15.410156 -20.71875 14.421875 -19.75 C 13.441406 -18.789062 12.953125 -17.53125 12.953125 -15.96875 L 12.953125 -5.296875 C 12.953125 -4.378906 12.921875 -3.6875 12.859375 -3.21875 C 12.796875 -2.757812 12.601562 -2.25 12.28125 -1.6875 C 11.757812 -0.601562 10.21875 -0.0625 7.65625 -0.0625 C 5.125 -0.0625 3.578125 -0.601562 3.015625 -1.6875 C 2.734375 -2.289062 2.5625 -2.820312 2.5 -3.28125 C 2.4375 -3.738281 2.40625 -4.429688 2.40625 -5.359375 L 2.40625 -26.6875 C 2.40625 -27.570312 2.4375 -28.242188 2.5 -28.703125 C 2.5625 -29.160156 2.753906 -29.671875 3.078125 -30.234375 C 3.640625 -31.242188 5.179688 -31.75 7.703125 -31.75 C 10.160156 -31.75 11.671875 -31.285156 12.234375 -30.359375 C 12.628906 -29.671875 12.828125 -28.847656 12.828125 -27.890625 C 12.992188 -28.171875 13.351562 -28.570312 13.90625 -29.09375 C 14.46875 -29.613281 15.015625 -30.035156 15.546875 -30.359375 C 16.910156 -31.285156 18.414062 -31.75 20.0625 -31.75 Z M 20.0625 -31.75 "/></g></g></g><g fill="#31a768" fill-opacity="1"><g transform="translate(119.82968, 54.873294)"><g><path d="M 12.34375 -15.875 C 12.34375 -14.164062 12.90625 -12.835938 14.03125 -11.890625 C 15.15625 -10.953125 16.347656 -10.484375 17.609375 -10.484375 C 18.878906 -10.484375 20.066406 -10.851562 21.171875 -11.59375 C 22.273438 -12.332031 23.171875 -12.703125 23.859375 -12.703125 C 25.054688 -12.703125 26.519531 -11.640625 28.25 -9.515625 C 29.175781 -8.347656 29.640625 -7.304688 29.640625 -6.390625 C 29.640625 -4.859375 28.535156 -3.429688 26.328125 -2.109375 C 24.035156 -0.503906 21.222656 0.296875 17.890625 0.296875 C 14.148438 0.296875 10.554688 -1.046875 7.109375 -3.734375 C 5.460938 -5.015625 4.113281 -6.726562 3.0625 -8.875 C 2.019531 -11.03125 1.5 -13.398438 1.5 -15.984375 C 1.5 -18.578125 2.019531 -20.925781 3.0625 -23.03125 C 4.113281 -25.144531 5.460938 -26.84375 7.109375 -28.125 C 10.441406 -30.78125 13.992188 -32.109375 17.765625 -32.109375 C 19.296875 -32.109375 20.78125 -31.894531 22.21875 -31.46875 C 23.664062 -31.050781 24.734375 -30.640625 25.421875 -30.234375 L 26.375 -29.640625 C 27.101562 -29.148438 27.664062 -28.765625 28.0625 -28.484375 C 29.113281 -27.679688 29.640625 -26.769531 29.640625 -25.75 C 29.640625 -24.726562 29.21875 -23.570312 28.375 -22.28125 C 26.925781 -20.070312 25.539062 -18.96875 24.21875 -18.96875 C 23.445312 -18.96875 22.363281 -19.410156 20.96875 -20.296875 C 20.238281 -20.984375 19.203125 -21.328125 17.859375 -21.328125 C 16.515625 -21.328125 15.257812 -20.84375 14.09375 -19.875 C 12.925781 -18.914062 12.34375 -17.582031 12.34375 -15.875 Z M 12.34375 -15.875 "/></g></g></g><g fill="#31a768" fill-opacity="1"><g transform="translate(150.96465, 54.873294)"><g><path d="M 23.015625 -28.375 C 23.253906 -30.625 24.835938 -31.75 27.765625 -31.75 C 29.328125 -31.75 30.488281 -31.625 31.25 -31.375 C 32.019531 -31.132812 32.554688 -30.710938 32.859375 -30.109375 C 33.160156 -29.515625 33.335938 -28.984375 33.390625 -28.515625 C 33.453125 -28.054688 33.484375 -27.363281 33.484375 -26.4375 L 33.484375 -5.359375 C 33.484375 -4.429688 33.453125 -3.738281 33.390625 -3.28125 C 33.335938 -2.820312 33.171875 -2.289062 32.890625 -1.6875 C 32.328125 -0.644531 30.953125 -0.125 28.765625 -0.125 C 26.578125 -0.125 25.109375 -0.394531 24.359375 -0.9375 C 23.617188 -1.476562 23.1875 -2.269531 23.0625 -3.3125 C 21.582031 -1.1875 19.101562 -0.125 15.625 -0.125 C 12.15625 -0.125 8.929688 -1.707031 5.953125 -4.875 C 2.984375 -8.050781 1.5 -11.734375 1.5 -15.921875 C 1.5 -20.117188 2.992188 -23.796875 5.984375 -26.953125 C 8.984375 -30.109375 12.269531 -31.6875 15.84375 -31.6875 C 17.207031 -31.6875 18.453125 -31.441406 19.578125 -30.953125 C 20.703125 -30.472656 21.484375 -30.019531 21.921875 -29.59375 C 22.367188 -29.175781 22.734375 -28.769531 23.015625 -28.375 Z M 12.046875 -15.84375 C 12.046875 -14.519531 12.566406 -13.320312 13.609375 -12.25 C 14.648438 -11.1875 15.914062 -10.65625 17.40625 -10.65625 C 18.894531 -10.65625 20.128906 -11.195312 21.109375 -12.28125 C 22.097656 -13.375 22.59375 -14.570312 22.59375 -15.875 C 22.59375 -17.175781 22.117188 -18.390625 21.171875 -19.515625 C 20.222656 -20.640625 18.957031 -21.203125 17.375 -21.203125 C 15.789062 -21.203125 14.503906 -20.640625 13.515625 -19.515625 C 12.535156 -18.390625 12.046875 -17.164062 12.046875 -15.84375 Z M 12.046875 -15.84375 "/></g></g></g><g fill="#31a768" fill-opacity="1"><g transform="translate(186.857158, 54.873294)"><g><path d="M 23.96875 -31.375 C 24.738281 -31.132812 25.375 -30.722656 25.875 -30.140625 C 26.375 -29.566406 26.625 -28.632812 26.625 -27.34375 C 26.625 -26.0625 26.238281 -24.65625 25.46875 -23.125 C 24.707031 -21.601562 23.609375 -20.84375 22.171875 -20.84375 C 21.441406 -20.84375 20.742188 -21.003906 20.078125 -21.328125 C 19.421875 -21.648438 18.550781 -21.8125 17.46875 -21.8125 C 16.382812 -21.8125 15.367188 -21.425781 14.421875 -20.65625 C 13.484375 -19.894531 13.015625 -18.972656 13.015625 -17.890625 L 13.015625 -5.234375 C 13.015625 -4.316406 12.984375 -3.625 12.921875 -3.15625 C 12.859375 -2.695312 12.664062 -2.164062 12.34375 -1.5625 C 11.738281 -0.519531 10.175781 0 7.65625 0 C 5.726562 0 4.34375 -0.34375 3.5 -1.03125 C 2.851562 -1.59375 2.488281 -2.453125 2.40625 -3.609375 C 2.40625 -4.015625 2.40625 -4.597656 2.40625 -5.359375 L 2.40625 -26.5 C 2.40625 -27.425781 2.4375 -28.117188 2.5 -28.578125 C 2.5625 -29.046875 2.734375 -29.554688 3.015625 -30.109375 C 3.578125 -31.203125 5.140625 -31.75 7.703125 -31.75 C 10.117188 -31.75 11.628906 -31.285156 12.234375 -30.359375 C 12.671875 -29.710938 12.890625 -29.050781 12.890625 -28.375 C 13.085938 -28.65625 13.375 -28.992188 13.75 -29.390625 C 14.132812 -29.796875 14.945312 -30.335938 16.1875 -31.015625 C 17.4375 -31.703125 18.535156 -32.046875 19.484375 -32.046875 C 20.429688 -32.046875 21.222656 -31.992188 21.859375 -31.890625 C 22.503906 -31.796875 23.207031 -31.625 23.96875 -31.375 Z M 23.96875 -31.375 "/></g></g></g><g fill="#31a768" fill-opacity="1"><g transform="translate(214.378748, 54.873294)"><g/></g></g><g fill="#31a768" fill-opacity="1"><g transform="translate(229.615004, 54.873294)"><g><path d="M 33.015625 -19.671875 C 33.015625 -17.203125 32.398438 -15.375 31.171875 -14.1875 C 29.941406 -13 28.585938 -12.40625 27.109375 -12.40625 L 12.828125 -12.40625 C 12.828125 -11.28125 13.488281 -10.335938 14.8125 -9.578125 C 16.144531 -8.816406 17.472656 -8.4375 18.796875 -8.4375 C 21.117188 -8.4375 22.945312 -8.675781 24.28125 -9.15625 L 24.9375 -9.390625 C 25.894531 -9.835938 26.695312 -10.0625 27.34375 -10.0625 C 28.632812 -10.0625 29.738281 -9.15625 30.65625 -7.34375 C 31.175781 -6.257812 31.4375 -5.335938 31.4375 -4.578125 C 31.4375 -1.003906 27.160156 0.78125 18.609375 0.78125 C 15.640625 0.78125 13 0.269531 10.6875 -0.75 C 8.382812 -1.769531 6.585938 -3.125 5.296875 -4.8125 C 2.765625 -8.070312 1.5 -11.707031 1.5 -15.71875 C 1.5 -20.78125 3.132812 -24.828125 6.40625 -27.859375 C 9.6875 -30.890625 13.773438 -32.40625 18.671875 -32.40625 C 24.253906 -32.40625 28.347656 -30.4375 30.953125 -26.5 C 32.328125 -24.414062 33.015625 -22.140625 33.015625 -19.671875 Z M 20.296875 -17.890625 C 21.828125 -17.890625 22.59375 -18.53125 22.59375 -19.8125 C 22.59375 -20.738281 22.238281 -21.484375 21.53125 -22.046875 C 20.832031 -22.609375 19.828125 -22.890625 18.515625 -22.890625 C 17.210938 -22.890625 15.914062 -22.359375 14.625 -21.296875 C 13.34375 -20.234375 12.703125 -19.097656 12.703125 -17.890625 Z M 20.296875 -17.890625 "/></g></g></g><g fill="#31a768" fill-opacity="1"><g transform="translate(264.122406, 54.873294)"><g/></g></g><g fill="#31a768" fill-opacity="1"><g transform="translate(279.358662, 54.873294)"><g><path d="M 27.890625 -41.015625 L 44.15625 -7.40625 C 44.832031 -6.039062 45.171875 -5.019531 45.171875 -4.34375 C 45.171875 -2.894531 44.007812 -1.585938 41.6875 -0.421875 C 40.320312 0.265625 39.242188 0.609375 38.453125 0.609375 C 37.671875 0.609375 37.03125 0.425781 36.53125 0.0625 C 36.03125 -0.300781 35.664062 -0.679688 35.4375 -1.078125 C 35.21875 -1.484375 34.910156 -2.085938 34.515625 -2.890625 L 31.375 -9.390625 L 14.703125 -9.390625 L 11.5625 -2.890625 C 11.164062 -2.085938 10.851562 -1.503906 10.625 -1.140625 C 10.40625 -0.785156 10.046875 -0.414062 9.546875 -0.03125 C 9.046875 0.351562 8.398438 0.546875 7.609375 0.546875 C 6.828125 0.546875 5.753906 0.203125 4.390625 -0.484375 C 2.066406 -1.609375 0.90625 -2.894531 0.90625 -4.34375 C 0.90625 -5.019531 1.242188 -6.039062 1.921875 -7.40625 L 18.1875 -41.078125 C 18.632812 -42.003906 19.304688 -42.75 20.203125 -43.3125 C 21.109375 -43.875 22.0625 -44.15625 23.0625 -44.15625 C 25.238281 -44.15625 26.847656 -43.109375 27.890625 -41.015625 Z M 23.015625 -26.5625 L 19.03125 -18.3125 L 27.046875 -18.3125 Z M 23.015625 -26.5625 "/></g></g></g><g fill="#31a768" fill-opacity="1"><g transform="translate(325.428752, 54.873294)"><g><path d="M 2.40625 8.609375 L 2.40625 -26.5625 C 2.40625 -27.488281 2.4375 -28.171875 2.5 -28.609375 C 2.5625 -29.054688 2.734375 -29.554688 3.015625 -30.109375 C 3.578125 -31.203125 4.921875 -31.75 7.046875 -31.75 C 9.171875 -31.75 10.601562 -31.472656 11.34375 -30.921875 C 12.09375 -30.378906 12.53125 -29.585938 12.65625 -28.546875 C 14.175781 -30.640625 16.570312 -31.6875 19.84375 -31.6875 C 23.113281 -31.6875 26.210938 -30.140625 29.140625 -27.046875 C 32.078125 -23.953125 33.546875 -20.359375 33.546875 -16.265625 C 33.546875 -12.171875 32.085938 -8.578125 29.171875 -5.484375 C 26.265625 -2.390625 23.164062 -0.84375 19.875 -0.84375 C 16.582031 -0.84375 14.191406 -1.765625 12.703125 -3.609375 L 12.703125 8.546875 C 12.703125 9.472656 12.671875 10.15625 12.609375 10.59375 C 12.554688 11.039062 12.378906 11.554688 12.078125 12.140625 C 11.773438 12.722656 11.257812 13.132812 10.53125 13.375 C 9.8125 13.613281 8.828125 13.734375 7.578125 13.734375 C 6.335938 13.734375 5.347656 13.613281 4.609375 13.375 C 3.867188 13.132812 3.347656 12.734375 3.046875 12.171875 C 2.742188 11.609375 2.5625 11.101562 2.5 10.65625 C 2.4375 10.21875 2.40625 9.535156 2.40625 8.609375 Z M 14.328125 -19.75 C 13.410156 -18.664062 12.953125 -17.484375 12.953125 -16.203125 C 12.953125 -14.921875 13.421875 -13.742188 14.359375 -12.671875 C 15.304688 -11.609375 16.507812 -11.078125 17.96875 -11.078125 C 19.4375 -11.078125 20.679688 -11.597656 21.703125 -12.640625 C 22.734375 -13.691406 23.25 -14.878906 23.25 -16.203125 C 23.25 -17.523438 22.765625 -18.71875 21.796875 -19.78125 C 20.835938 -20.851562 19.582031 -21.390625 18.03125 -21.390625 C 16.488281 -21.390625 15.253906 -20.84375 14.328125 -19.75 Z M 14.328125 -19.75 "/></g></g></g><g fill="#31a768" fill-opacity="1"><g transform="translate(360.478139, 54.873294)"><g><path d="M 23.96875 -31.375 C 24.738281 -31.132812 25.375 -30.722656 25.875 -30.140625 C 26.375 -29.566406 26.625 -28.632812 26.625 -27.34375 C 26.625 -26.0625 26.238281 -24.65625 25.46875 -23.125 C 24.707031 -21.601562 23.609375 -20.84375 22.171875 -20.84375 C 21.441406 -20.84375 20.742188 -21.003906 20.078125 -21.328125 C 19.421875 -21.648438 18.550781 -21.8125 17.46875 -21.8125 C 16.382812 -21.8125 15.367188 -21.425781 14.421875 -20.65625 C 13.484375 -19.894531 13.015625 -18.972656 13.015625 -17.890625 L 13.015625 -5.234375 C 13.015625 -4.316406 12.984375 -3.625 12.921875 -3.15625 C 12.859375 -2.695312 12.664062 -2.164062 12.34375 -1.5625 C 11.738281 -0.519531 10.175781 0 7.65625 0 C 5.726562 0 4.34375 -0.34375 3.5 -1.03125 C 2.851562 -1.59375 2.488281 -2.453125 2.40625 -3.609375 C 2.40625 -4.015625 2.40625 -4.597656 2.40625 -5.359375 L 2.40625 -26.5 C 2.40625 -27.425781 2.4375 -28.117188 2.5 -28.578125 C 2.5625 -29.046875 2.734375 -29.554688 3.015625 -30.109375 C 3.578125 -31.203125 5.140625 -31.75 7.703125 -31.75 C 10.117188 -31.75 11.628906 -31.285156 12.234375 -30.359375 C 12.671875 -29.710938 12.890625 -29.050781 12.890625 -28.375 C 13.085938 -28.65625 13.375 -28.992188 13.75 -29.390625 C 14.132812 -29.796875 14.945312 -30.335938 16.1875 -31.015625 C 17.4375 -31.703125 18.535156 -32.046875 19.484375 -32.046875 C 20.429688 -32.046875 21.222656 -31.992188 21.859375 -31.890625 C 22.503906 -31.796875 23.207031 -31.625 23.96875 -31.375 Z M 23.96875 -31.375 "/></g></g></g><g fill="#31a768" fill-opacity="1"><g transform="translate(387.999729, 54.873294)"><g><path d="M 33.015625 -19.671875 C 33.015625 -17.203125 32.398438 -15.375 31.171875 -14.1875 C 29.941406 -13 28.585938 -12.40625 27.109375 -12.40625 L 12.828125 -12.40625 C 12.828125 -11.28125 13.488281 -10.335938 14.8125 -9.578125 C 16.144531 -8.816406 17.472656 -8.4375 18.796875 -8.4375 C 21.117188 -8.4375 22.945312 -8.675781 24.28125 -9.15625 L 24.9375 -9.390625 C 25.894531 -9.835938 26.695312 -10.0625 27.34375 -10.0625 C 28.632812 -10.0625 29.738281 -9.15625 30.65625 -7.34375 C 31.175781 -6.257812 31.4375 -5.335938 31.4375 -4.578125 C 31.4375 -1.003906 27.160156 0.78125 18.609375 0.78125 C 15.640625 0.78125 13 0.269531 10.6875 -0.75 C 8.382812 -1.769531 6.585938 -3.125 5.296875 -4.8125 C 2.765625 -8.070312 1.5 -11.707031 1.5 -15.71875 C 1.5 -20.78125 3.132812 -24.828125 6.40625 -27.859375 C 9.6875 -30.890625 13.773438 -32.40625 18.671875 -32.40625 C 24.253906 -32.40625 28.347656 -30.4375 30.953125 -26.5 C 32.328125 -24.414062 33.015625 -22.140625 33.015625 -19.671875 Z M 20.296875 -17.890625 C 21.828125 -17.890625 22.59375 -18.53125 22.59375 -19.8125 C 22.59375 -20.738281 22.238281 -21.484375 21.53125 -22.046875 C 20.832031 -22.609375 19.828125 -22.890625 18.515625 -22.890625 C 17.210938 -22.890625 15.914062 -22.359375 14.625 -21.296875 C 13.34375 -20.234375 12.703125 -19.097656 12.703125 -17.890625 Z M 20.296875 -17.890625 "/></g></g></g><g fill="#31a768" fill-opacity="1"><g transform="translate(422.507132, 54.873294)"><g><path d="M 20.0625 -31.75 C 24.070312 -31.75 27.410156 -30.210938 30.078125 -27.140625 C 32.753906 -24.066406 34.09375 -20.320312 34.09375 -15.90625 L 34.09375 -5.296875 C 34.09375 -4.378906 34.0625 -3.6875 34 -3.21875 C 33.9375 -2.757812 33.765625 -2.25 33.484375 -1.6875 C 32.921875 -0.601562 31.359375 -0.0625 28.796875 -0.0625 C 25.941406 -0.0625 24.296875 -0.800781 23.859375 -2.28125 C 23.609375 -2.96875 23.484375 -3.992188 23.484375 -5.359375 L 23.484375 -15.96875 C 23.484375 -17.613281 23.007812 -18.894531 22.0625 -19.8125 C 21.125 -20.738281 19.863281 -21.203125 18.28125 -21.203125 C 16.695312 -21.203125 15.410156 -20.71875 14.421875 -19.75 C 13.441406 -18.789062 12.953125 -17.53125 12.953125 -15.96875 L 12.953125 -5.296875 C 12.953125 -4.378906 12.921875 -3.6875 12.859375 -3.21875 C 12.796875 -2.757812 12.601562 -2.25 12.28125 -1.6875 C 11.757812 -0.601562 10.21875 -0.0625 7.65625 -0.0625 C 5.125 -0.0625 3.578125 -0.601562 3.015625 -1.6875 C 2.734375 -2.289062 2.5625 -2.820312 2.5 -3.28125 C 2.4375 -3.738281 2.40625 -4.429688 2.40625 -5.359375 L 2.40625 -26.6875 C 2.40625 -27.570312 2.4375 -28.242188 2.5 -28.703125 C 2.5625 -29.160156 2.753906 -29.671875 3.078125 -30.234375 C 3.640625 -31.242188 5.179688 -31.75 7.703125 -31.75 C 10.160156 -31.75 11.671875 -31.285156 12.234375 -30.359375 C 12.628906 -29.671875 12.828125 -28.847656 12.828125 -27.890625 C 12.992188 -28.171875 13.351562 -28.570312 13.90625 -29.09375 C 14.46875 -29.613281 15.015625 -30.035156 15.546875 -30.359375 C 16.910156 -31.285156 18.414062 -31.75 20.0625 -31.75 Z M 20.0625 -31.75 "/></g></g></g><g fill="#31a768" fill-opacity="1"><g transform="translate(459.001861, 54.873294)"><g><path d="M 23.703125 -44.96875 C 24.003906 -45.550781 24.535156 -45.960938 25.296875 -46.203125 C 26.054688 -46.441406 27.066406 -46.5625 28.328125 -46.5625 C 29.597656 -46.5625 30.613281 -46.441406 31.375 -46.203125 C 32.144531 -45.960938 32.679688 -45.539062 32.984375 -44.9375 C 33.285156 -44.332031 33.460938 -43.796875 33.515625 -43.328125 C 33.578125 -42.867188 33.609375 -42.179688 33.609375 -41.265625 L 33.609375 -5.296875 C 33.609375 -4.378906 33.578125 -3.6875 33.515625 -3.21875 C 33.460938 -2.757812 33.273438 -2.25 32.953125 -1.6875 C 32.347656 -0.601562 30.648438 -0.0625 27.859375 -0.0625 C 25.066406 -0.0625 23.507812 -1.046875 23.1875 -3.015625 C 21.5 -1.085938 19.148438 -0.125 16.140625 -0.125 C 12.523438 -0.125 9.234375 -1.695312 6.265625 -4.84375 C 3.296875 -8 1.8125 -11.675781 1.8125 -15.875 C 1.8125 -20.070312 3.304688 -23.753906 6.296875 -26.921875 C 9.285156 -30.097656 12.566406 -31.6875 16.140625 -31.6875 C 19.109375 -31.6875 21.414062 -30.679688 23.0625 -28.671875 L 23.0625 -41.328125 C 23.0625 -42.242188 23.09375 -42.929688 23.15625 -43.390625 C 23.21875 -43.859375 23.398438 -44.382812 23.703125 -44.96875 Z M 13.90625 -12.21875 C 14.957031 -11.132812 16.222656 -10.59375 17.703125 -10.59375 C 19.191406 -10.59375 20.425781 -11.132812 21.40625 -12.21875 C 22.394531 -13.3125 22.890625 -14.507812 22.890625 -15.8125 C 22.890625 -17.113281 22.414062 -18.328125 21.46875 -19.453125 C 20.53125 -20.578125 19.253906 -21.140625 17.640625 -21.140625 C 16.035156 -21.140625 14.75 -20.585938 13.78125 -19.484375 C 12.820312 -18.378906 12.34375 -17.164062 12.34375 -15.84375 C 12.34375 -14.519531 12.863281 -13.3125 13.90625 -12.21875 Z M 13.90625 -12.21875 "/></g></g></g><g fill="#31a768" fill-opacity="1"><g transform="translate(495.014793, 54.873294)"><g><path d="M 33.015625 -19.671875 C 33.015625 -17.203125 32.398438 -15.375 31.171875 -14.1875 C 29.941406 -13 28.585938 -12.40625 27.109375 -12.40625 L 12.828125 -12.40625 C 12.828125 -11.28125 13.488281 -10.335938 14.8125 -9.578125 C 16.144531 -8.816406 17.472656 -8.4375 18.796875 -8.4375 C 21.117188 -8.4375 22.945312 -8.675781 24.28125 -9.15625 L 24.9375 -9.390625 C 25.894531 -9.835938 26.695312 -10.0625 27.34375 -10.0625 C 28.632812 -10.0625 29.738281 -9.15625 30.65625 -7.34375 C 31.175781 -6.257812 31.4375 -5.335938 31.4375 -4.578125 C 31.4375 -1.003906 27.160156 0.78125 18.609375 0.78125 C 15.640625 0.78125 13 0.269531 10.6875 -0.75 C 8.382812 -1.769531 6.585938 -3.125 5.296875 -4.8125 C 2.765625 -8.070312 1.5 -11.707031 1.5 -15.71875 C 1.5 -20.78125 3.132812 -24.828125 6.40625 -27.859375 C 9.6875 -30.890625 13.773438 -32.40625 18.671875 -32.40625 C 24.253906 -32.40625 28.347656 -30.4375 30.953125 -26.5 C 32.328125 -24.414062 33.015625 -22.140625 33.015625 -19.671875 Z M 20.296875 -17.890625 C 21.828125 -17.890625 22.59375 -18.53125 22.59375 -19.8125 C 22.59375 -20.738281 22.238281 -21.484375 21.53125 -22.046875 C 20.832031 -22.609375 19.828125 -22.890625 18.515625 -22.890625 C 17.210938 -22.890625 15.914062 -22.359375 14.625 -21.296875 C 13.34375 -20.234375 12.703125 -19.097656 12.703125 -17.890625 Z M 20.296875 -17.890625 "/></g></g></g><g fill="#31a768" fill-opacity="1"><g transform="translate(529.522196, 54.873294)"><g><path d="M 23.96875 -31.375 C 24.738281 -31.132812 25.375 -30.722656 25.875 -30.140625 C 26.375 -29.566406 26.625 -28.632812 26.625 -27.34375 C 26.625 -26.0625 26.238281 -24.65625 25.46875 -23.125 C 24.707031 -21.601562 23.609375 -20.84375 22.171875 -20.84375 C 21.441406 -20.84375 20.742188 -21.003906 20.078125 -21.328125 C 19.421875 -21.648438 18.550781 -21.8125 17.46875 -21.8125 C 16.382812 -21.8125 15.367188 -21.425781 14.421875 -20.65625 C 13.484375 -19.894531 13.015625 -18.972656 13.015625 -17.890625 L 13.015625 -5.234375 C 13.015625 -4.316406 12.984375 -3.625 12.921875 -3.15625 C 12.859375 -2.695312 12.664062 -2.164062 12.34375 -1.5625 C 11.738281 -0.519531 10.175781 0 7.65625 0 C 5.726562 0 4.34375 -0.34375 3.5 -1.03125 C 2.851562 -1.59375 2.488281 -2.453125 2.40625 -3.609375 C 2.40625 -4.015625 2.40625 -4.597656 2.40625 -5.359375 L 2.40625 -26.5 C 2.40625 -27.425781 2.4375 -28.117188 2.5 -28.578125 C 2.5625 -29.046875 2.734375 -29.554688 3.015625 -30.109375 C 3.578125 -31.203125 5.140625 -31.75 7.703125 -31.75 C 10.117188 -31.75 11.628906 -31.285156 12.234375 -30.359375 C 12.671875 -29.710938 12.890625 -29.050781 12.890625 -28.375 C 13.085938 -28.65625 13.375 -28.992188 13.75 -29.390625 C 14.132812 -29.796875 14.945312 -30.335938 16.1875 -31.015625 C 17.4375 -31.703125 18.535156 -32.046875 19.484375 -32.046875 C 20.429688 -32.046875 21.222656 -31.992188 21.859375 -31.890625 C 22.503906 -31.796875 23.207031 -31.625 23.96875 -31.375 Z M 23.96875 -31.375 "/></g></g></g></g></g><g transform="matrix(1, 0, 0, 1, 91, 301)"><g clip-path="url(#4e19d656f3)"><g clip-path="url(#9cf88fa04a)"><g fill="#f59d06" fill-opacity="1"><g transform="translate(0.617289, 124.043982)"><g><path d="M 24.390625 -87.75 C 28.609375 -88.21875 32.6875 -88.570312 36.625 -88.8125 C 38.570312 -88.925781 40.796875 -88.984375 43.296875 -88.984375 C 45.515625 -89.023438 47.695312 -88.96875 49.84375 -88.8125 C 52.1875 -88.65625 54.234375 -88.457031 55.984375 -88.21875 C 58.054688 -87.863281 59.773438 -87.492188 61.140625 -87.109375 C 62.816406 -86.566406 64.101562 -86.019531 65 -85.46875 C 68.351562 -83.363281 71.0625 -80.828125 73.125 -77.859375 C 75.15625 -74.859375 75.410156 -71.367188 73.890625 -67.390625 C 73.773438 -67.046875 73.640625 -66.71875 73.484375 -66.40625 C 72.148438 -63.394531 70.140625 -60.679688 67.453125 -58.265625 C 67.222656 -58.035156 66.875 -57.722656 66.40625 -57.328125 C 66.164062 -57.140625 65.773438 -56.847656 65.234375 -56.453125 C 65.503906 -56.335938 65.796875 -56.238281 66.109375 -56.15625 C 66.378906 -56.039062 66.671875 -55.945312 66.984375 -55.875 C 67.253906 -55.75 67.546875 -55.648438 67.859375 -55.578125 C 68.128906 -55.460938 68.40625 -55.363281 68.6875 -55.28125 C 71.601562 -54.070312 74.210938 -52.6875 76.515625 -51.125 C 76.828125 -50.9375 77.296875 -50.609375 77.921875 -50.140625 C 80.304688 -48.335938 82.507812 -46.25 84.53125 -43.875 C 86.5625 -41.457031 87.910156 -38.785156 88.578125 -35.859375 C 88.734375 -35.046875 88.847656 -34.226562 88.921875 -33.40625 C 89.234375 -26.8125 87.363281 -21.503906 83.3125 -17.484375 C 79.21875 -13.472656 74.300781 -10.414062 68.5625 -8.3125 C 66.457031 -7.53125 63.921875 -6.75 60.953125 -5.96875 C 57.835938 -5.144531 54.992188 -4.519531 52.421875 -4.09375 C 48.515625 -3.351562 44.535156 -2.691406 40.484375 -2.109375 C 36.390625 -1.484375 32.375 -0.878906 28.4375 -0.296875 C 27.8125 -0.140625 26.875 -0.0390625 25.625 0 L 22.75 0 C 19.363281 0 16.539062 -0.410156 14.28125 -1.234375 C 11.976562 -2.015625 10.046875 -3.925781 8.484375 -6.96875 C 7.628906 -8.601562 6.925781 -10.335938 6.375 -12.171875 C 5.789062 -13.960938 5.304688 -15.753906 4.921875 -17.546875 C 3.046875 -25.390625 1.816406 -33.71875 1.234375 -42.53125 C 0.640625 -51.300781 0.695312 -59.707031 1.40625 -67.75 C 1.632812 -70.082031 1.925781 -72.128906 2.28125 -73.890625 C 2.28125 -74.046875 2.300781 -74.203125 2.34375 -74.359375 C 2.382812 -74.515625 2.421875 -74.691406 2.453125 -74.890625 C 2.453125 -75.003906 2.492188 -75.15625 2.578125 -75.34375 C 2.609375 -75.5 2.644531 -75.65625 2.6875 -75.8125 C 2.769531 -76.09375 2.847656 -76.425781 2.921875 -76.8125 C 3.078125 -77.320312 3.175781 -77.65625 3.21875 -77.8125 C 3.757812 -79.519531 4.460938 -81.019531 5.328125 -82.3125 C 6.140625 -83.601562 7.484375 -84.578125 9.359375 -85.234375 C 9.597656 -85.316406 9.832031 -85.394531 10.0625 -85.46875 C 10.289062 -85.507812 10.523438 -85.585938 10.765625 -85.703125 C 14.785156 -86.523438 19.328125 -87.207031 24.390625 -87.75 Z M 26.796875 -62.25 C 26.796875 -62.164062 26.816406 -62.085938 26.859375 -62.015625 C 26.859375 -61.929688 26.859375 -61.875 26.859375 -61.84375 C 26.859375 -61.757812 26.875 -61.679688 26.90625 -61.609375 C 26.90625 -61.523438 26.90625 -61.460938 26.90625 -61.421875 L 27.03125 -61.015625 C 27.34375 -59.492188 28.394531 -58.773438 30.1875 -58.859375 C 31.9375 -58.929688 33.457031 -59.179688 34.75 -59.609375 C 34.90625 -59.691406 35.039062 -59.734375 35.15625 -59.734375 C 35.195312 -59.734375 35.253906 -59.753906 35.328125 -59.796875 C 35.367188 -59.828125 35.429688 -59.863281 35.515625 -59.90625 C 35.742188 -59.976562 35.878906 -60.015625 35.921875 -60.015625 C 38.265625 -61.035156 40.117188 -62.710938 41.484375 -65.046875 C 42.804688 -67.390625 42.820312 -69.675781 41.53125 -71.90625 C 41.457031 -71.976562 41.421875 -72.035156 41.421875 -72.078125 C 41.378906 -72.078125 41.335938 -72.097656 41.296875 -72.140625 C 41.265625 -72.171875 41.25 -72.207031 41.25 -72.25 C 39.6875 -74.394531 37.207031 -75.46875 33.8125 -75.46875 C 33.695312 -75.46875 33.597656 -75.445312 33.515625 -75.40625 L 32.875 -75.40625 C 32.800781 -75.40625 32.742188 -75.40625 32.703125 -75.40625 C 32.660156 -75.363281 32.617188 -75.34375 32.578125 -75.34375 C 31.878906 -75.269531 30.96875 -75.054688 29.84375 -74.703125 C 29.019531 -74.472656 28.273438 -74.023438 27.609375 -73.359375 L 27.5 -73.25 L 27.5 -73.015625 L 27.4375 -72.953125 C 27.394531 -72.910156 27.375 -72.867188 27.375 -72.828125 L 27.328125 -72.78125 C 27.328125 -72.738281 27.304688 -72.695312 27.265625 -72.65625 L 27.265625 -72.59375 C 27.265625 -72.5625 27.222656 -72.503906 27.140625 -72.421875 C 27.140625 -72.304688 27.125 -72.226562 27.09375 -72.1875 C 27.09375 -72.070312 27.070312 -71.992188 27.03125 -71.953125 C 26.945312 -70.554688 26.890625 -69.15625 26.859375 -67.75 C 26.816406 -66.300781 26.796875 -64.875 26.796875 -63.46875 Z M 34.109375 -13.390625 C 34.734375 -13.316406 35.394531 -13.28125 36.09375 -13.28125 C 36.644531 -13.238281 37.640625 -13.257812 39.078125 -13.34375 C 41.609375 -13.457031 44.257812 -13.804688 47.03125 -14.390625 C 49.757812 -14.929688 52.195312 -15.90625 54.34375 -17.3125 C 57.976562 -19.695312 59.5 -22.9375 58.90625 -27.03125 C 58.832031 -27.34375 58.796875 -27.554688 58.796875 -27.671875 C 58.753906 -27.742188 58.710938 -27.84375 58.671875 -27.96875 C 58.640625 -28.039062 58.625 -28.132812 58.625 -28.25 C 57.800781 -31.101562 56.179688 -33.25 53.765625 -34.6875 C 51.304688 -36.09375 48.457031 -36.796875 45.21875 -36.796875 C 44.007812 -36.796875 42.800781 -36.738281 41.59375 -36.625 C 39.0625 -36.425781 36.722656 -36.054688 34.578125 -35.515625 C 33.523438 -35.203125 32.585938 -34.910156 31.765625 -34.640625 C 30.867188 -34.242188 30.242188 -33.867188 29.890625 -33.515625 C 29.421875 -33.128906 29.226562 -32.722656 29.3125 -32.296875 C 29.382812 -31.710938 29.539062 -30.875 29.78125 -29.78125 C 30.5625 -25.601562 31.515625 -21.601562 32.640625 -17.78125 C 32.878906 -16.96875 33.132812 -16.226562 33.40625 -15.5625 C 33.519531 -15.207031 33.632812 -14.859375 33.75 -14.515625 C 33.875 -14.117188 33.992188 -13.742188 34.109375 -13.390625 Z M 34.109375 -13.390625 "/></g></g></g></g></g></g><g transform="matrix(1, 0, 0, 1, 184, 291)"><g clip-path="url(#576e3f8661)"><g fill="#f88bad" fill-opacity="1"><g transform="translate(0.30769, 124.355242)"><g><path d="M 22.875 -52.421875 C 27.519531 -55.347656 31.945312 -56.75 36.15625 -56.625 C 40.363281 -56.46875 43.503906 -55.378906 45.578125 -53.359375 C 47.640625 -51.328125 47.890625 -48.441406 46.328125 -44.703125 C 44.773438 -40.953125 42.554688 -39.410156 39.671875 -40.078125 C 36.773438 -40.734375 33.804688 -40.457031 30.765625 -39.25 C 27.722656 -38.039062 25.910156 -34.863281 25.328125 -29.71875 C 24.742188 -24.53125 25.445312 -18.367188 27.4375 -11.234375 C 27.707031 -10.296875 28 -9.320312 28.3125 -8.3125 C 28.582031 -7.257812 28.757812 -6.242188 28.84375 -5.265625 C 28.882812 -3.429688 28.101562 -2.125 26.5 -1.34375 C 24.863281 -0.5625 22.972656 -0.113281 20.828125 0 C 18.679688 0.113281 16.554688 -0.0195312 14.453125 -0.40625 C 12.347656 -0.800781 10.863281 -1.269531 10 -1.8125 C 8.40625 -2.789062 7.21875 -4.234375 6.4375 -6.140625 C 5.613281 -8.054688 4.96875 -9.929688 4.5 -11.765625 C 3.601562 -15.273438 2.90625 -19.738281 2.40625 -25.15625 C 1.894531 -30.539062 1.640625 -35.222656 1.640625 -39.203125 C 1.597656 -43.140625 1.734375 -46.570312 2.046875 -49.5 C 2.316406 -52.414062 2.898438 -54.734375 3.796875 -56.453125 C 4.578125 -57.859375 5.535156 -58.816406 6.671875 -59.328125 C 8.035156 -59.941406 9.632812 -60.3125 11.46875 -60.4375 C 13.257812 -60.550781 14.878906 -60.53125 16.328125 -60.375 C 18.429688 -60.132812 20.085938 -59.53125 21.296875 -58.5625 C 22.503906 -57.582031 22.910156 -55.671875 22.515625 -52.828125 Z M 22.875 -52.421875 "/></g></g></g></g></g><g transform="matrix(1, 0, 0, 1, 223, 295)"><g clip-path="url(#d0272e6ebf)"><g fill="#31a768" fill-opacity="1"><g transform="translate(10.267441, 125.748199)"><g><path d="M 5.4375 -58.453125 C 6.476562 -58.710938 7.597656 -58.882812 8.796875 -58.96875 C 9.335938 -59 9.863281 -59.015625 10.375 -59.015625 C 12.800781 -58.984375 14.539062 -58.921875 15.59375 -58.828125 C 17.09375 -58.660156 18.296875 -58.484375 19.203125 -58.296875 C 19.398438 -58.273438 19.6875 -58.179688 20.0625 -58.015625 C 20.21875 -57.898438 20.441406 -57.71875 20.734375 -57.46875 L 21.484375 -56.875 C 21.609375 -56.757812 21.832031 -56.535156 22.15625 -56.203125 C 22.28125 -56.023438 22.414062 -55.75 22.5625 -55.375 L 23 -53.984375 C 23.019531 -53.671875 23.128906 -53.207031 23.328125 -52.59375 C 23.378906 -52.4375 23.414062 -52.179688 23.4375 -51.828125 C 23.519531 -48.921875 23.445312 -44.660156 23.21875 -39.046875 C 23.125 -36.410156 23.175781 -33.640625 23.375 -30.734375 C 23.851562 -24.078125 24.894531 -17.09375 26.5 -9.78125 C 26.5 -8.5625 26.398438 -7.375 26.203125 -6.21875 C 26.003906 -5.09375 25.78125 -4.304688 25.53125 -3.859375 C 25.113281 -3.117188 24.140625 -2.539062 22.609375 -2.125 C 21.910156 -1.925781 21.132812 -1.796875 20.28125 -1.734375 C 19.4375 -1.640625 18.5625 -1.582031 17.65625 -1.5625 C 16.0625 -1.5 14.316406 -1.566406 12.421875 -1.765625 C 11.015625 -1.867188 9.796875 -2.039062 8.765625 -2.28125 L 8.03125 -2.578125 C 7.875 -2.648438 7.613281 -2.828125 7.25 -3.109375 C 7.082031 -3.222656 6.847656 -3.425781 6.546875 -3.71875 C 6.546875 -3.675781 6.335938 -3.894531 5.921875 -4.375 C 5.765625 -4.476562 5.613281 -4.757812 5.46875 -5.21875 C 5.28125 -5.59375 5.128906 -6.054688 5.015625 -6.609375 C 4.847656 -7.410156 3.90625 -14.003906 2.1875 -26.390625 C 1.882812 -28.566406 1.664062 -30.6875 1.53125 -32.75 L 1.515625 -33.03125 L 1.484375 -33.625 C 1.472656 -33.695312 1.460938 -33.789062 1.453125 -33.90625 C 0.859375 -43.050781 2.1875 -51.234375 5.4375 -58.453125 Z M 18.796875 -80.734375 C 20.972656 -78.921875 22.15625 -76.632812 22.34375 -73.875 C 22.519531 -71.15625 21.644531 -68.753906 19.71875 -66.671875 C 17.78125 -64.585938 15.359375 -63.445312 12.453125 -63.25 C 9.566406 -63.0625 7.023438 -63.875 4.828125 -65.6875 C 2.640625 -67.5 1.457031 -69.765625 1.28125 -72.484375 C 1.09375 -75.242188 1.96875 -77.664062 3.90625 -79.75 C 5.84375 -81.800781 8.253906 -82.921875 11.140625 -83.109375 C 14.046875 -83.304688 16.597656 -82.515625 18.796875 -80.734375 Z M 18.796875 -80.734375 "/></g></g></g></g></g><g transform="matrix(1, 0, 0, 1, 262, 290)"><g clip-path="url(#045bee0bb8)"><g fill="#db5b2a" fill-opacity="1"><g transform="translate(0.507168, 127.764438)"><g><path d="M 26.671875 -53.875 C 28.722656 -55.445312 31.535156 -56.414062 35.109375 -56.78125 C 38.648438 -57.132812 42.375 -56.023438 46.28125 -53.453125 C 50.414062 -50.722656 53.570312 -47.101562 55.75 -42.59375 C 57.882812 -38.050781 59.390625 -33.488281 60.265625 -28.90625 C 60.867188 -25.6875 61.375 -21.21875 61.78125 -15.5 C 62.1875 -9.789062 61.625 -5.390625 60.09375 -2.296875 C 59.570312 -1.203125 58.75 -0.554688 57.625 -0.359375 C 55.726562 -0.0351562 53.429688 -0.296875 50.734375 -1.140625 C 48.046875 -1.984375 46.195312 -2.890625 45.1875 -3.859375 C 44.707031 -4.222656 44.382812 -4.664062 44.21875 -5.1875 C 43.894531 -5.914062 43.796875 -6.722656 43.921875 -7.609375 C 44.046875 -8.484375 44.1875 -9.304688 44.34375 -10.078125 C 44.863281 -12.972656 45.003906 -16.050781 44.765625 -19.3125 C 44.523438 -22.53125 44.039062 -25.523438 43.3125 -28.296875 C 42.832031 -30.179688 42.210938 -31.789062 41.453125 -33.125 C 39.035156 -37.0625 36.238281 -38.867188 33.0625 -38.546875 C 29.882812 -38.191406 27.59375 -34.796875 26.1875 -28.359375 C 25.582031 -24.535156 26.023438 -18.941406 27.515625 -11.578125 C 27.753906 -10.617188 27.992188 -9.613281 28.234375 -8.5625 C 28.429688 -7.476562 28.53125 -6.4375 28.53125 -5.4375 C 28.414062 -3.539062 27.492188 -2.191406 25.765625 -1.390625 C 24.035156 -0.585938 22.0625 -0.125 19.84375 0 C 17.632812 0.125 15.460938 -0.015625 13.328125 -0.421875 C 11.160156 -0.828125 9.65625 -1.3125 8.8125 -1.875 C 7.238281 -2.875 6.128906 -4.359375 5.484375 -6.328125 C 4.804688 -8.304688 4.285156 -10.238281 3.921875 -12.125 C 3.273438 -15.75 2.910156 -20.351562 2.828125 -25.9375 C 2.710938 -31.488281 2.695312 -35.492188 2.78125 -37.953125 C 2.851562 -40.359375 3.050781 -43.15625 3.375 -46.34375 C 3.65625 -49.519531 4.765625 -53.476562 6.703125 -58.21875 C 7.617188 -59.664062 8.679688 -60.648438 9.890625 -61.171875 C 11.335938 -61.816406 13.007812 -62.203125 14.90625 -62.328125 C 16.789062 -62.441406 18.457031 -62.421875 19.90625 -62.265625 C 22.082031 -62.023438 23.753906 -61.398438 24.921875 -60.390625 C 26.085938 -59.390625 26.347656 -57.421875 25.703125 -54.484375 Z M 26.671875 -53.875 "/></g></g></g></g></g><g transform="matrix(1, 0, 0, 1, 310, 288)"><g clip-path="url(#d2ba8c0730)"><g fill="#0987c7" fill-opacity="1"><g transform="translate(7.789395, 121.499118)"><g><path d="M 63.265625 -50.53125 C 65.753906 -49.4375 67.6875 -48.273438 69.0625 -47.046875 C 70.644531 -45.609375 71.285156 -44.144531 70.984375 -42.65625 C 70.640625 -40.925781 70.144531 -39.238281 69.5 -37.59375 C 68.832031 -35.925781 67.910156 -34.421875 66.734375 -33.078125 C 65.035156 -31.140625 63.597656 -30.289062 62.421875 -30.53125 C 61.347656 -30.75 60.347656 -31.128906 59.421875 -31.671875 C 58.453125 -32.234375 57.507812 -32.78125 56.59375 -33.3125 C 54.664062 -34.425781 51.925781 -35.28125 48.375 -35.875 C 44.789062 -36.4375 41.3125 -36.335938 37.9375 -35.578125 C 34.53125 -34.828125 31.691406 -33.1875 29.421875 -30.65625 C 27.160156 -28.101562 26.40625 -24.238281 27.15625 -19.0625 C 27.675781 -15.269531 29.691406 -12.222656 33.203125 -9.921875 C 36.671875 -7.585938 40.414062 -6.21875 44.4375 -5.8125 C 47.507812 -5.507812 50.910156 -6.015625 54.640625 -7.328125 C 58.367188 -8.648438 61.554688 -7.273438 64.203125 -3.203125 C 65.710938 -0.828125 65.273438 1.128906 62.890625 2.671875 C 60.503906 4.253906 58.460938 5.414062 56.765625 6.15625 C 55.585938 6.675781 54.429688 7.097656 53.296875 7.421875 C 50.210938 8.316406 47.226562 8.597656 44.34375 8.265625 C 41.46875 7.953125 38.65625 7.382812 35.90625 6.5625 C 32.269531 5.46875 28.867188 3.90625 25.703125 1.875 C 23.191406 0.257812 20.894531 -1.671875 18.8125 -3.921875 C 16.664062 -6.128906 14.890625 -8.691406 13.484375 -11.609375 C 10.898438 -16.941406 9.585938 -22.582031 9.546875 -28.53125 C 9.441406 -37.695312 13.097656 -44.59375 20.515625 -49.21875 C 24.210938 -51.582031 28.175781 -53.113281 32.40625 -53.8125 C 36.65625 -54.507812 40.671875 -54.78125 44.453125 -54.625 C 47.648438 -54.488281 50.851562 -54.097656 54.0625 -53.453125 C 57.238281 -52.816406 60.304688 -51.84375 63.265625 -50.53125 Z M 63.265625 -50.53125 "/></g></g></g></g></g><g transform="matrix(1, 0, 0, 1, 376, 319)"><g clip-path="url(#8fa5a5f1a3)"><g fill="#f59d06" fill-opacity="1"><g transform="translate(7.428169, 94.26063)"><g><path d="M 9.40625 -38.9375 C 10.894531 -41.050781 12.535156 -43.082031 14.328125 -45.03125 C 16.066406 -46.9375 18.019531 -48.679688 20.1875 -50.265625 C 21.132812 -50.960938 22.0625 -51.601562 22.96875 -52.1875 C 28.738281 -55.957031 35 -58.21875 41.75 -58.96875 C 47.5625 -59.625 52.925781 -58.828125 57.84375 -56.578125 C 60.207031 -55.492188 62.453125 -53.8125 64.578125 -51.53125 C 66.710938 -49.238281 68.222656 -46.847656 69.109375 -44.359375 C 69.671875 -42.734375 70.015625 -41.035156 70.140625 -39.265625 C 70.242188 -37.492188 70.253906 -35.753906 70.171875 -34.046875 C 69.765625 -28.148438 68.429688 -22.960938 66.171875 -18.484375 C 64.804688 -15.804688 63.019531 -13.257812 60.8125 -10.84375 C 58.570312 -8.394531 56.3125 -6.257812 54.03125 -4.4375 C 50.632812 -1.6875 46.90625 0.492188 42.84375 2.109375 C 38.757812 3.722656 34.515625 4.421875 30.109375 4.203125 C 25.691406 3.898438 21.550781 2.726562 17.6875 0.6875 C 14.75 -0.832031 12.109375 -2.769531 9.765625 -5.125 C 7.367188 -7.457031 5.671875 -10.238281 4.671875 -13.46875 C 3.734375 -16.570312 3.46875 -20.082031 3.875 -24 C 4.519531 -29.675781 6.363281 -34.65625 9.40625 -38.9375 Z M 25.28125 -26.875 C 24.84375 -24.007812 26 -20.796875 28.75 -17.234375 C 31.476562 -13.679688 34.609375 -12.484375 38.140625 -13.640625 C 40.421875 -14.378906 41.921875 -15.644531 42.640625 -17.4375 C 43.367188 -19.226562 43.578125 -21.191406 43.265625 -23.328125 C 42.878906 -25.734375 41.8125 -27.835938 40.0625 -29.640625 C 38.3125 -31.429688 36.421875 -32.613281 34.390625 -33.1875 C 32.335938 -33.769531 30.425781 -33.609375 28.65625 -32.703125 C 26.851562 -31.773438 25.726562 -29.832031 25.28125 -26.875 Z M 25.28125 -26.875 "/></g></g></g></g></g><g transform="matrix(1, 0, 0, 1, 452, 289)"><g clip-path="url(#8b1f90a982)"><g fill="#f88bad" fill-opacity="1"><g transform="translate(3.776929, 133.826179)"><g><path d="M 33.171875 -78.265625 C 30.972656 -67.835938 29.546875 -56.300781 28.890625 -43.65625 C 28.242188 -31 28.820312 -19.722656 30.625 -9.828125 C 30.75 -8.816406 30.9375 -7.753906 31.1875 -6.640625 C 31.425781 -5.515625 31.546875 -4.40625 31.546875 -3.3125 C 31.378906 -1.375 30.425781 -0.0625 28.6875 0.625 C 26.9375 1.332031 24.96875 1.660156 22.78125 1.609375 C 20.550781 1.554688 18.390625 1.234375 16.296875 0.640625 C 14.140625 0.0351562 12.644531 -0.59375 11.8125 -1.25 C 10.226562 -2.425781 9.097656 -4.082031 8.421875 -6.21875 C 7.753906 -8.332031 7.269531 -10.375 6.96875 -12.34375 C 6.34375 -16.144531 6.015625 -20.976562 5.984375 -26.84375 C 5.960938 -32.675781 6.160156 -38.695312 6.578125 -44.90625 C 7.003906 -51.070312 7.613281 -57 8.40625 -62.6875 C 9.207031 -68.3125 10.128906 -72.851562 11.171875 -76.3125 C 12.117188 -79.53125 13.140625 -82.003906 14.234375 -83.734375 C 15.160156 -85.203125 16.238281 -86.164062 17.46875 -86.625 C 18.90625 -87.144531 20.570312 -87.390625 22.46875 -87.359375 C 24.320312 -87.335938 25.992188 -87.179688 27.484375 -86.890625 C 29.597656 -86.453125 31.242188 -85.675781 32.421875 -84.5625 C 33.585938 -83.4375 33.835938 -81.335938 33.171875 -78.265625 Z M 33.171875 -78.265625 "/></g></g></g></g></g><g transform="matrix(1, 0, 0, 1, 427, 298)"><g clip-path="url(#815eb0381b)"><g fill="#31a768" fill-opacity="1"><g transform="translate(93.280856, 129.506345)"><g><path d="M -22.4375 -26.0625 C -24.320312 -30.882812 -25.347656 -35.238281 -25.515625 -39.125 C -25.554688 -40.664062 -25.578125 -41.648438 -25.578125 -42.078125 C -25.585938 -48.046875 -24.269531 -53.65625 -21.625 -58.90625 C -19.40625 -63.394531 -16.320312 -66.941406 -12.375 -69.546875 C -10.488281 -70.742188 -8.222656 -71.613281 -5.578125 -72.15625 C -2.898438 -72.65625 -0.453125 -72.660156 1.765625 -72.171875 C 4.242188 -71.546875 6.867188 -70.222656 9.640625 -68.203125 C 13.742188 -65.179688 16.863281 -61.816406 19 -58.109375 C 20.3125 -55.867188 21.304688 -53.394531 21.984375 -50.6875 C 22.691406 -47.925781 23.164062 -45.300781 23.40625 -42.8125 C 23.757812 -39.070312 23.578125 -35.347656 22.859375 -31.640625 C 22.140625 -27.910156 20.65625 -24.507812 18.40625 -21.4375 C 16.007812 -18.289062 13.234375 -15.800781 10.078125 -13.96875 C 7.535156 -12.507812 4.875 -11.460938 2.09375 -10.828125 C -0.664062 -10.148438 -3.441406 -10.207031 -6.234375 -11 C -8.984375 -11.695312 -11.660156 -13.109375 -14.265625 -15.234375 C -17.992188 -18.253906 -20.71875 -21.863281 -22.4375 -26.0625 Z M -6.296875 -32.125 C -4.453125 -30.507812 -1.601562 -29.878906 2.25 -30.234375 C 6.09375 -30.609375 8.441406 -32.335938 9.296875 -35.421875 C 9.835938 -37.390625 9.628906 -39.078125 8.671875 -40.484375 C 7.734375 -41.828125 6.421875 -42.878906 4.734375 -43.640625 C 0.921875 -45.316406 -2.832031 -44.664062 -6.53125 -41.6875 C -10.238281 -38.707031 -10.160156 -35.519531 -6.296875 -32.125 Z M -6.296875 -32.125 "/></g></g></g></g></g><g transform="matrix(1, 0, 0, 1, 547, 294)"><g clip-path="url(#6fc8f931f2)"><g fill="#db5b2a" fill-opacity="1"><g transform="translate(0.345464, 127.113775)"><g><path d="M 31.09375 -26.59375 C 33.175781 -26.863281 35.203125 -27.785156 37.171875 -29.359375 C 39.140625 -30.878906 40.484375 -32.800781 41.203125 -35.125 C 41.765625 -37.207031 41.804688 -39.191406 41.328125 -41.078125 C 40.835938 -42.921875 39.53125 -44.363281 37.40625 -45.40625 C 34.039062 -47.007812 30.773438 -46.226562 27.609375 -43.0625 C 24.441406 -39.894531 22.878906 -36.867188 22.921875 -33.984375 C 22.960938 -31.015625 23.820312 -28.96875 25.5 -27.84375 C 27.144531 -26.6875 29.007812 -26.269531 31.09375 -26.59375 Z M 44.515625 -9.328125 C 41.660156 -7.035156 36.804688 -6.253906 29.953125 -6.984375 C 23.097656 -7.703125 17.644531 -10.023438 13.59375 -13.953125 C 9.539062 -17.878906 6.875 -21.953125 5.59375 -26.171875 C 4.3125 -30.378906 3.726562 -34.707031 3.84375 -39.15625 C 3.925781 -43.570312 4.609375 -47.160156 5.890625 -49.921875 C 7.140625 -52.691406 8.984375 -55 11.421875 -56.84375 C 13.828125 -58.6875 16.476562 -60.128906 19.375 -61.171875 C 23.101562 -62.535156 27.007812 -63.097656 31.09375 -62.859375 C 35.101562 -62.535156 38.851562 -61.390625 42.34375 -59.421875 C 43.90625 -58.546875 45.390625 -57.585938 46.796875 -56.546875 C 47.117188 -57.585938 47.519531 -58.671875 48 -59.796875 C 48.71875 -61.316406 49.757812 -62.5 51.125 -63.34375 C 51.882812 -63.78125 53.1875 -64.179688 55.03125 -64.546875 C 56.875 -64.859375 58.757812 -65 60.6875 -64.96875 C 62.570312 -64.925781 64.257812 -64.601562 65.75 -64 C 67.1875 -63.394531 67.882812 -62.351562 67.84375 -60.875 C 67.84375 -60.070312 67.722656 -59.269531 67.484375 -58.46875 C 67.203125 -57.625 66.960938 -56.820312 66.765625 -56.0625 C 64.640625 -48.71875 63.5 -40.316406 63.34375 -30.859375 C 63.175781 -22.273438 63.191406 -14.835938 63.390625 -8.546875 C 63.597656 -2.203125 62.335938 3.210938 59.609375 7.703125 C 56.878906 12.234375 54.09375 15.179688 51.25 16.546875 C 48.40625 17.941406 45.476562 18.960938 42.46875 19.609375 C 38.65625 20.453125 34.765625 20.753906 30.796875 20.515625 C 27.828125 20.347656 24.878906 19.925781 21.953125 19.25 C 18.984375 18.5625 16.132812 17.28125 13.40625 15.40625 C 12.40625 14.71875 11.425781 13.929688 10.46875 13.046875 C 9.0625 11.765625 7.253906 9.398438 5.046875 5.953125 C 2.804688 2.503906 2.910156 0.257812 5.359375 -0.78125 C 13.410156 -3.789062 18.5 -3.671875 20.625 -0.421875 C 22.71875 2.828125 25.285156 4.894531 28.328125 5.78125 C 31.335938 6.65625 34.566406 6.53125 38.015625 5.40625 C 41.421875 4.289062 43.40625 1.644531 43.96875 -2.53125 C 44.488281 -6.695312 44.671875 -8.960938 44.515625 -9.328125 Z M 44.515625 -9.328125 "/></g></g></g></g></g><g transform="matrix(1, 0, 0, 1, 612, 292)"><g clip-path="url(#53e75743c7)"><g fill="#31a768" fill-opacity="1"><g transform="translate(8.700393, 129.263418)"><g><path d="M 5.578125 -60.078125 C 6.640625 -60.347656 7.789062 -60.519531 9.03125 -60.59375 C 9.59375 -60.632812 10.132812 -60.648438 10.65625 -60.640625 C 13.132812 -60.609375 14.921875 -60.546875 16.015625 -60.453125 C 17.554688 -60.265625 18.800781 -60.082031 19.75 -59.90625 C 19.945312 -59.875 20.234375 -59.773438 20.609375 -59.609375 C 20.773438 -59.503906 21.007812 -59.316406 21.3125 -59.046875 L 22.046875 -58.421875 C 22.179688 -58.316406 22.421875 -58.09375 22.765625 -57.75 C 22.898438 -57.5625 23.039062 -57.273438 23.1875 -56.890625 L 23.640625 -55.46875 C 23.660156 -55.144531 23.769531 -54.671875 23.96875 -54.046875 C 24.019531 -53.890625 24.0625 -53.632812 24.09375 -53.28125 C 24.164062 -50.269531 24.09375 -45.882812 23.875 -40.125 C 23.769531 -37.414062 23.8125 -34.566406 24 -31.578125 C 24.5 -24.734375 25.570312 -17.554688 27.21875 -10.046875 C 27.226562 -8.796875 27.132812 -7.582031 26.9375 -6.40625 C 26.726562 -5.238281 26.5 -4.421875 26.25 -3.953125 C 25.8125 -3.203125 24.804688 -2.613281 23.234375 -2.1875 C 22.515625 -1.976562 21.71875 -1.847656 20.84375 -1.796875 C 19.957031 -1.691406 19.054688 -1.628906 18.140625 -1.609375 C 16.503906 -1.546875 14.710938 -1.613281 12.765625 -1.8125 C 11.328125 -1.914062 10.078125 -2.09375 9.015625 -2.34375 L 8.265625 -2.65625 C 8.097656 -2.71875 7.828125 -2.898438 7.453125 -3.203125 C 7.273438 -3.316406 7.035156 -3.519531 6.734375 -3.8125 C 6.734375 -3.78125 6.519531 -4.007812 6.09375 -4.5 C 5.914062 -4.601562 5.753906 -4.890625 5.609375 -5.359375 C 5.421875 -5.753906 5.269531 -6.226562 5.15625 -6.78125 C 4.976562 -7.613281 4.007812 -14.398438 2.25 -27.140625 C 1.9375 -29.367188 1.710938 -31.539062 1.578125 -33.65625 L 1.546875 -33.953125 L 1.53125 -34.25 L 1.515625 -34.5625 C 1.503906 -34.632812 1.492188 -34.734375 1.484375 -34.859375 C 0.867188 -44.253906 2.234375 -52.660156 5.578125 -60.078125 Z M 19.3125 -82.96875 C 21.5625 -81.09375 22.78125 -78.738281 22.96875 -75.90625 C 23.144531 -73.101562 22.242188 -70.640625 20.265625 -68.515625 C 18.265625 -66.359375 15.769531 -65.179688 12.78125 -64.984375 C 9.8125 -64.796875 7.207031 -65.632812 4.96875 -67.5 C 2.707031 -69.351562 1.488281 -71.679688 1.3125 -74.484375 C 1.125 -77.316406 2.023438 -79.804688 4.015625 -81.953125 C 6.003906 -84.046875 8.484375 -85.1875 11.453125 -85.375 C 14.441406 -85.570312 17.0625 -84.769531 19.3125 -82.96875 Z M 19.3125 -82.96875 "/></g></g></g></g></g><g transform="matrix(1, 0, 0, 1, 649, 289)"><g clip-path="url(#9dffb7dcf9)"><g fill="#f59d06" fill-opacity="1"><g transform="translate(2.114766, 123.809677)"><g><path d="M 24.921875 -23.625 C 23.546875 -21.457031 23.644531 -19.070312 25.21875 -16.46875 C 26.789062 -13.820312 29.539062 -13.007812 33.46875 -14.03125 C 35.957031 -14.664062 37.859375 -15.675781 39.171875 -17.0625 C 40.484375 -18.457031 41.34375 -19.96875 41.75 -21.59375 C 42.132812 -23.375 41.75 -24.90625 40.59375 -26.1875 C 39.394531 -27.488281 37.890625 -28.332031 36.078125 -28.71875 C 34.210938 -29.070312 32.226562 -28.882812 30.125 -28.15625 C 28.039062 -27.375 26.304688 -25.863281 24.921875 -23.625 Z M 37.8125 -45.40625 C 34.03125 -46.414062 30.257812 -46.664062 26.5 -46.15625 C 23.625 -45.769531 21.179688 -44.878906 19.171875 -43.484375 C 17.117188 -42.046875 14.816406 -41.628906 12.265625 -42.234375 C 9.679688 -42.859375 7.894531 -44.394531 6.90625 -46.84375 C 5.90625 -49.257812 6.265625 -51.296875 7.984375 -52.953125 C 9.648438 -54.597656 11.140625 -55.84375 12.453125 -56.6875 C 13.378906 -57.320312 14.320312 -57.851562 15.28125 -58.28125 C 17.820312 -59.5 20.445312 -60.269531 23.15625 -60.59375 C 25.820312 -60.90625 28.5 -61.050781 31.1875 -61.03125 C 34.78125 -60.957031 38.28125 -60.476562 41.6875 -59.59375 C 44.351562 -58.9375 46.941406 -58.007812 49.453125 -56.8125 C 51.941406 -55.570312 54.304688 -53.191406 56.546875 -49.671875 C 58.742188 -46.140625 59.585938 -42.046875 59.078125 -37.390625 C 58.585938 -32.679688 58.191406 -27.113281 57.890625 -20.6875 C 57.554688 -13.644531 58.195312 -8.335938 59.8125 -4.765625 C 59.976562 -4.203125 60.164062 -3.601562 60.375 -2.96875 C 60.539062 -2.332031 60.59375 -1.703125 60.53125 -1.078125 C 60.488281 0.00390625 60.003906 0.957031 59.078125 1.78125 C 58.128906 2.601562 56.734375 3.148438 54.890625 3.421875 C 53.015625 3.703125 51.304688 3.554688 49.765625 2.984375 C 48.222656 2.410156 47.128906 1.9375 46.484375 1.5625 C 45.316406 0.84375 44.441406 -0.109375 43.859375 -1.296875 C 43.460938 -2.179688 43.144531 -3.019531 42.90625 -3.8125 C 40.769531 -2.332031 38.96875 -1.3125 37.5 -0.75 C 34.25 0.488281 30.8125 1.109375 27.1875 1.109375 C 23.476562 1.035156 19.96875 0.367188 16.65625 -0.890625 C 14.125 -1.859375 11.8125 -3.109375 9.71875 -4.640625 C 7.644531 -6.128906 6.085938 -7.96875 5.046875 -10.15625 C 4.078125 -12.257812 3.648438 -14.675781 3.765625 -17.40625 C 3.921875 -21.3125 5.117188 -24.773438 7.359375 -27.796875 C 8.515625 -29.265625 9.597656 -30.628906 10.609375 -31.890625 C 11.597656 -33.128906 13.71875 -34.832031 16.96875 -37 C 20.226562 -39.175781 24.128906 -40.425781 28.671875 -40.75 C 33.203125 -41.0625 38 -40.53125 43.0625 -39.15625 C 43.226562 -39.425781 43.125 -40.171875 42.75 -41.390625 C 42.363281 -42.585938 40.71875 -43.925781 37.8125 -45.40625 Z M 37.8125 -45.40625 "/></g></g></g></g></g></svg>