<svg xmlns="http://www.w3.org/2000/svg" xmlns:xlink="http://www.w3.org/1999/xlink" width="935" zoomAndPan="magnify" viewBox="0 0 701.25 285.749991" height="381" preserveAspectRatio="xMidYMid meet" version="1.0"><defs><g/><clipPath id="37743e9784"><rect x="0" width="561" y="0" height="73"/></clipPath><clipPath id="ac54681d5c"><path d="M 0.203125 35 L 90 35 L 90 125 L 0.203125 125 Z M 0.203125 35 " clip-rule="nonzero"/></clipPath><clipPath id="ee281c964e"><rect x="0" width="95" y="0" height="156"/></clipPath><clipPath id="ac190264d4"><rect x="0" width="51" y="0" height="156"/></clipPath><clipPath id="fbb2a54869"><rect x="0" width="45" y="0" height="158"/></clipPath><clipPath id="b5c99ce59f"><rect x="0" width="66" y="0" height="161"/></clipPath><clipPath id="8d24213749"><rect x="0" width="100" y="0" height="167"/></clipPath><clipPath id="7d5db7147b"><rect x="0" width="90" y="0" height="129"/></clipPath><clipPath id="2d4f7a09c2"><rect x="0" width="48" y="0" height="170"/></clipPath><clipPath id="ccdcb5d79c"><rect x="0" width="159" y="0" height="151"/></clipPath><clipPath id="4fc585976a"><rect x="0" width="73" y="0" height="160"/></clipPath><clipPath id="d38b8bf5af"><rect x="0" width="44" y="0" height="162"/></clipPath><clipPath id="69725aae0c"><rect x="0" width="71" y="0" height="158"/></clipPath></defs><g transform="matrix(1, 0, 0, 1, 72, 200)"><g clip-path="url(#37743e9784)"><g fill="#31a768" fill-opacity="1"><g transform="translate(1.237279, 55.884436)"><g><path d="M 33.8125 -23.640625 C 36.175781 -20.835938 37.359375 -17.691406 37.359375 -14.203125 C 37.285156 -10.191406 35.914062 -6.832031 33.25 -4.125 C 30.582031 -1.414062 27.34375 -0.0625 23.53125 -0.0625 L 7.703125 -0.0625 C 4.890625 -0.0625 3.242188 -0.820312 2.765625 -2.34375 C 2.523438 -3.03125 2.40625 -4.070312 2.40625 -5.46875 L 2.40625 -38.875 C 2.40625 -39.832031 2.4375 -40.53125 2.5 -40.96875 C 2.5625 -41.414062 2.75 -41.941406 3.0625 -42.546875 C 3.625 -43.628906 5.191406 -44.171875 7.765625 -44.171875 L 22.921875 -44.171875 C 26.617188 -44.171875 29.707031 -42.882812 32.1875 -40.3125 C 34.800781 -37.707031 36.109375 -34.578125 36.109375 -30.921875 C 36.109375 -28.273438 35.34375 -25.847656 33.8125 -23.640625 Z M 26.71875 -14.796875 C 26.71875 -15.765625 26.601562 -16.53125 26.375 -17.09375 C 26.15625 -17.65625 25.785156 -18.054688 25.265625 -18.296875 C 24.460938 -18.617188 23.335938 -18.78125 21.890625 -18.78125 C 20.453125 -18.78125 19.367188 -19.054688 18.640625 -19.609375 C 17.921875 -20.171875 17.5625 -21.320312 17.5625 -23.0625 C 17.5625 -24.8125 17.929688 -25.96875 18.671875 -26.53125 C 19.421875 -27.09375 20.660156 -27.375 22.390625 -27.375 C 23.992188 -27.375 24.953125 -27.796875 25.265625 -28.640625 C 25.390625 -29.078125 25.453125 -29.796875 25.453125 -30.796875 C 25.453125 -31.804688 25.117188 -32.507812 24.453125 -32.90625 C 23.796875 -33.3125 22.804688 -33.515625 21.484375 -33.515625 L 13.0625 -33.515625 L 13.0625 -10.703125 L 22.921875 -10.703125 C 25.453125 -10.703125 26.71875 -12.066406 26.71875 -14.796875 Z M 26.71875 -14.796875 "/></g></g></g><g fill="#31a768" fill-opacity="1"><g transform="translate(40.099332, 55.884436)"><g><path d="M 23.953125 -31.34375 C 24.710938 -31.101562 25.34375 -30.691406 25.84375 -30.109375 C 26.34375 -29.535156 26.59375 -28.601562 26.59375 -27.3125 C 26.59375 -26.03125 26.210938 -24.625 25.453125 -23.09375 C 24.691406 -21.570312 23.585938 -20.8125 22.140625 -20.8125 C 21.421875 -20.8125 20.726562 -20.972656 20.0625 -21.296875 C 19.40625 -21.617188 18.535156 -21.78125 17.453125 -21.78125 C 16.367188 -21.78125 15.351562 -21.398438 14.40625 -20.640625 C 13.46875 -19.878906 13 -18.957031 13 -17.875 L 13 -5.234375 C 13 -4.304688 12.96875 -3.613281 12.90625 -3.15625 C 12.84375 -2.695312 12.648438 -2.164062 12.328125 -1.5625 C 11.734375 -0.519531 10.171875 0 7.640625 0 C 5.710938 0 4.328125 -0.335938 3.484375 -1.015625 C 2.847656 -1.578125 2.488281 -2.441406 2.40625 -3.609375 C 2.40625 -4.015625 2.40625 -4.597656 2.40625 -5.359375 L 2.40625 -26.46875 C 2.40625 -27.394531 2.4375 -28.085938 2.5 -28.546875 C 2.5625 -29.015625 2.734375 -29.523438 3.015625 -30.078125 C 3.566406 -31.160156 5.128906 -31.703125 7.703125 -31.703125 C 10.109375 -31.703125 11.613281 -31.242188 12.21875 -30.328125 C 12.65625 -29.679688 12.875 -29.019531 12.875 -28.34375 C 13.070312 -28.625 13.363281 -28.960938 13.75 -29.359375 C 14.132812 -29.765625 14.945312 -30.304688 16.1875 -30.984375 C 17.425781 -31.671875 18.515625 -32.015625 19.453125 -32.015625 C 20.398438 -32.015625 21.195312 -31.960938 21.84375 -31.859375 C 22.488281 -31.753906 23.191406 -31.582031 23.953125 -31.34375 Z M 23.953125 -31.34375 "/></g></g></g><g fill="#31a768" fill-opacity="1"><g transform="translate(67.591519, 55.884436)"><g><path d="M 2.40625 -26.421875 C 2.40625 -27.335938 2.4375 -28.023438 2.5 -28.484375 C 2.5625 -28.953125 2.734375 -29.484375 3.015625 -30.078125 C 3.566406 -31.128906 5.128906 -31.65625 7.703125 -31.65625 C 9.628906 -31.65625 10.992188 -31.3125 11.796875 -30.625 C 12.472656 -30.0625 12.832031 -29.203125 12.875 -28.046875 C 12.914062 -27.640625 12.9375 -27.054688 12.9375 -26.296875 L 12.9375 -5.234375 C 12.9375 -4.304688 12.90625 -3.613281 12.84375 -3.15625 C 12.78125 -2.695312 12.59375 -2.164062 12.28125 -1.5625 C 11.757812 -0.519531 10.210938 0 7.640625 0 C 5.109375 0 3.566406 -0.539062 3.015625 -1.625 C 2.734375 -2.226562 2.5625 -2.75 2.5 -3.1875 C 2.4375 -3.625 2.40625 -4.328125 2.40625 -5.296875 Z M 12.296875 -37.578125 C 12.003906 -36.992188 11.472656 -36.582031 10.703125 -36.34375 C 9.941406 -36.101562 8.929688 -35.984375 7.671875 -35.984375 C 6.410156 -35.984375 5.394531 -36.101562 4.625 -36.34375 C 3.863281 -36.582031 3.332031 -37.003906 3.03125 -37.609375 C 2.738281 -38.210938 2.5625 -38.742188 2.5 -39.203125 C 2.4375 -39.660156 2.40625 -40.347656 2.40625 -41.265625 C 2.40625 -42.191406 2.4375 -42.882812 2.5 -43.34375 C 2.5625 -43.8125 2.734375 -44.328125 3.015625 -44.890625 C 3.566406 -45.972656 5.128906 -46.515625 7.703125 -46.515625 C 10.234375 -46.515625 11.757812 -45.972656 12.28125 -44.890625 C 12.59375 -44.285156 12.78125 -43.753906 12.84375 -43.296875 C 12.90625 -42.835938 12.9375 -42.144531 12.9375 -41.21875 C 12.9375 -40.289062 12.90625 -39.597656 12.84375 -39.140625 C 12.78125 -38.679688 12.597656 -38.160156 12.296875 -37.578125 Z M 12.296875 -37.578125 "/></g></g></g><g fill="#31a768" fill-opacity="1"><g transform="translate(82.931793, 55.884436)"><g><path d="M 20.03125 -31.703125 C 24.039062 -31.703125 27.378906 -30.164062 30.046875 -27.09375 C 32.722656 -24.03125 34.0625 -20.296875 34.0625 -15.890625 L 34.0625 -5.296875 C 34.0625 -4.367188 34.03125 -3.675781 33.96875 -3.21875 C 33.90625 -2.757812 33.734375 -2.25 33.453125 -1.6875 C 32.890625 -0.601562 31.328125 -0.0625 28.765625 -0.0625 C 25.910156 -0.0625 24.265625 -0.800781 23.828125 -2.28125 C 23.585938 -2.96875 23.46875 -3.992188 23.46875 -5.359375 L 23.46875 -15.953125 C 23.46875 -17.585938 22.992188 -18.867188 22.046875 -19.796875 C 21.109375 -20.722656 19.847656 -21.1875 18.265625 -21.1875 C 16.679688 -21.1875 15.394531 -20.703125 14.40625 -19.734375 C 13.425781 -18.773438 12.9375 -17.515625 12.9375 -15.953125 L 12.9375 -5.296875 C 12.9375 -4.367188 12.90625 -3.675781 12.84375 -3.21875 C 12.78125 -2.757812 12.59375 -2.25 12.28125 -1.6875 C 11.757812 -0.601562 10.210938 -0.0625 7.640625 -0.0625 C 5.109375 -0.0625 3.566406 -0.601562 3.015625 -1.6875 C 2.734375 -2.289062 2.5625 -2.820312 2.5 -3.28125 C 2.4375 -3.738281 2.40625 -4.429688 2.40625 -5.359375 L 2.40625 -26.65625 C 2.40625 -27.539062 2.4375 -28.210938 2.5 -28.671875 C 2.5625 -29.128906 2.75 -29.640625 3.0625 -30.203125 C 3.625 -31.203125 5.171875 -31.703125 7.703125 -31.703125 C 10.148438 -31.703125 11.65625 -31.242188 12.21875 -30.328125 C 12.613281 -29.640625 12.8125 -28.816406 12.8125 -27.859375 C 12.976562 -28.140625 13.335938 -28.539062 13.890625 -29.0625 C 14.453125 -29.582031 15 -30.003906 15.53125 -30.328125 C 16.882812 -31.242188 18.382812 -31.703125 20.03125 -31.703125 Z M 20.03125 -31.703125 "/></g></g></g><g fill="#31a768" fill-opacity="1"><g transform="translate(119.387533, 55.884436)"><g><path d="M 12.328125 -15.84375 C 12.328125 -14.144531 12.890625 -12.820312 14.015625 -11.875 C 15.140625 -10.9375 16.332031 -10.46875 17.59375 -10.46875 C 18.863281 -10.46875 20.050781 -10.835938 21.15625 -11.578125 C 22.257812 -12.328125 23.148438 -12.703125 23.828125 -12.703125 C 25.035156 -12.703125 26.5 -11.632812 28.21875 -9.5 C 29.144531 -8.34375 29.609375 -7.300781 29.609375 -6.375 C 29.609375 -4.851562 28.503906 -3.429688 26.296875 -2.109375 C 24.003906 -0.503906 21.195312 0.296875 17.875 0.296875 C 14.144531 0.296875 10.550781 -1.046875 7.09375 -3.734375 C 5.457031 -5.015625 4.113281 -6.726562 3.0625 -8.875 C 2.019531 -11.019531 1.5 -13.382812 1.5 -15.96875 C 1.5 -18.5625 2.019531 -20.910156 3.0625 -23.015625 C 4.113281 -25.117188 5.457031 -26.8125 7.09375 -28.09375 C 10.425781 -30.75 13.976562 -32.078125 17.75 -32.078125 C 19.269531 -32.078125 20.753906 -31.863281 22.203125 -31.4375 C 23.648438 -31.019531 24.710938 -30.609375 25.390625 -30.203125 L 26.359375 -29.609375 C 27.078125 -29.117188 27.640625 -28.738281 28.046875 -28.46875 C 29.085938 -27.664062 29.609375 -26.75 29.609375 -25.71875 C 29.609375 -24.695312 29.1875 -23.546875 28.34375 -22.265625 C 26.894531 -20.054688 25.507812 -18.953125 24.1875 -18.953125 C 23.425781 -18.953125 22.34375 -19.394531 20.9375 -20.28125 C 20.21875 -20.957031 19.1875 -21.296875 17.84375 -21.296875 C 16.5 -21.296875 15.242188 -20.8125 14.078125 -19.84375 C 12.910156 -18.882812 12.328125 -17.550781 12.328125 -15.84375 Z M 12.328125 -15.84375 "/></g></g></g><g fill="#31a768" fill-opacity="1"><g transform="translate(150.489239, 55.884436)"><g><path d="M 22.984375 -28.34375 C 23.222656 -30.582031 24.804688 -31.703125 27.734375 -31.703125 C 29.296875 -31.703125 30.457031 -31.582031 31.21875 -31.34375 C 31.988281 -31.101562 32.523438 -30.679688 32.828125 -30.078125 C 33.128906 -29.484375 33.304688 -28.953125 33.359375 -28.484375 C 33.421875 -28.023438 33.453125 -27.335938 33.453125 -26.421875 L 33.453125 -5.359375 C 33.453125 -4.429688 33.421875 -3.738281 33.359375 -3.28125 C 33.304688 -2.820312 33.140625 -2.289062 32.859375 -1.6875 C 32.296875 -0.644531 30.921875 -0.125 28.734375 -0.125 C 26.546875 -0.125 25.078125 -0.394531 24.328125 -0.9375 C 23.585938 -1.476562 23.160156 -2.269531 23.046875 -3.3125 C 21.554688 -1.1875 19.078125 -0.125 15.609375 -0.125 C 12.140625 -0.125 8.921875 -1.707031 5.953125 -4.875 C 2.984375 -8.039062 1.5 -11.71875 1.5 -15.90625 C 1.5 -20.101562 2.992188 -23.773438 5.984375 -26.921875 C 8.972656 -30.078125 12.253906 -31.65625 15.828125 -31.65625 C 17.191406 -31.65625 18.429688 -31.410156 19.546875 -30.921875 C 20.671875 -30.441406 21.453125 -29.988281 21.890625 -29.5625 C 22.335938 -29.144531 22.703125 -28.738281 22.984375 -28.34375 Z M 12.03125 -15.828125 C 12.03125 -14.503906 12.550781 -13.3125 13.59375 -12.25 C 14.632812 -11.1875 15.894531 -10.65625 17.375 -10.65625 C 18.863281 -10.65625 20.097656 -11.195312 21.078125 -12.28125 C 22.066406 -13.363281 22.5625 -14.554688 22.5625 -15.859375 C 22.5625 -17.160156 22.085938 -18.375 21.140625 -19.5 C 20.203125 -20.625 18.941406 -21.1875 17.359375 -21.1875 C 15.773438 -21.1875 14.488281 -20.625 13.5 -19.5 C 12.519531 -18.375 12.03125 -17.148438 12.03125 -15.828125 Z M 12.03125 -15.828125 "/></g></g></g><g fill="#31a768" fill-opacity="1"><g transform="translate(186.3434, 55.884436)"><g><path d="M 23.953125 -31.34375 C 24.710938 -31.101562 25.34375 -30.691406 25.84375 -30.109375 C 26.34375 -29.535156 26.59375 -28.601562 26.59375 -27.3125 C 26.59375 -26.03125 26.210938 -24.625 25.453125 -23.09375 C 24.691406 -21.570312 23.585938 -20.8125 22.140625 -20.8125 C 21.421875 -20.8125 20.726562 -20.972656 20.0625 -21.296875 C 19.40625 -21.617188 18.535156 -21.78125 17.453125 -21.78125 C 16.367188 -21.78125 15.351562 -21.398438 14.40625 -20.640625 C 13.46875 -19.878906 13 -18.957031 13 -17.875 L 13 -5.234375 C 13 -4.304688 12.96875 -3.613281 12.90625 -3.15625 C 12.84375 -2.695312 12.648438 -2.164062 12.328125 -1.5625 C 11.734375 -0.519531 10.171875 0 7.640625 0 C 5.710938 0 4.328125 -0.335938 3.484375 -1.015625 C 2.847656 -1.578125 2.488281 -2.441406 2.40625 -3.609375 C 2.40625 -4.015625 2.40625 -4.597656 2.40625 -5.359375 L 2.40625 -26.46875 C 2.40625 -27.394531 2.4375 -28.085938 2.5 -28.546875 C 2.5625 -29.015625 2.734375 -29.523438 3.015625 -30.078125 C 3.566406 -31.160156 5.128906 -31.703125 7.703125 -31.703125 C 10.109375 -31.703125 11.613281 -31.242188 12.21875 -30.328125 C 12.65625 -29.679688 12.875 -29.019531 12.875 -28.34375 C 13.070312 -28.625 13.363281 -28.960938 13.75 -29.359375 C 14.132812 -29.765625 14.945312 -30.304688 16.1875 -30.984375 C 17.425781 -31.671875 18.515625 -32.015625 19.453125 -32.015625 C 20.398438 -32.015625 21.195312 -31.960938 21.84375 -31.859375 C 22.488281 -31.753906 23.191406 -31.582031 23.953125 -31.34375 Z M 23.953125 -31.34375 "/></g></g></g><g fill="#31a768" fill-opacity="1"><g transform="translate(213.835587, 55.884436)"><g/></g></g><g fill="#31a768" fill-opacity="1"><g transform="translate(229.055565, 55.884436)"><g><path d="M 32.96875 -19.640625 C 32.96875 -17.179688 32.351562 -15.359375 31.125 -14.171875 C 29.90625 -12.984375 28.554688 -12.390625 27.078125 -12.390625 L 12.8125 -12.390625 C 12.8125 -11.265625 13.472656 -10.320312 14.796875 -9.5625 C 16.117188 -8.800781 17.445312 -8.421875 18.78125 -8.421875 C 21.101562 -8.421875 22.925781 -8.660156 24.25 -9.140625 L 24.90625 -9.390625 C 25.875 -9.828125 26.675781 -10.046875 27.3125 -10.046875 C 28.601562 -10.046875 29.707031 -9.144531 30.625 -7.34375 C 31.144531 -6.257812 31.40625 -5.335938 31.40625 -4.578125 C 31.40625 -1.003906 27.132812 0.78125 18.59375 0.78125 C 15.625 0.78125 12.984375 0.269531 10.671875 -0.75 C 8.367188 -1.769531 6.578125 -3.125 5.296875 -4.8125 C 2.765625 -8.0625 1.5 -11.691406 1.5 -15.703125 C 1.5 -20.753906 3.132812 -24.796875 6.40625 -27.828125 C 9.675781 -30.859375 13.757812 -32.375 18.65625 -32.375 C 24.226562 -32.375 28.316406 -30.40625 30.921875 -26.46875 C 32.285156 -24.382812 32.96875 -22.109375 32.96875 -19.640625 Z M 20.28125 -17.875 C 21.800781 -17.875 22.5625 -18.515625 22.5625 -19.796875 C 22.5625 -20.722656 22.207031 -21.460938 21.5 -22.015625 C 20.800781 -22.578125 19.800781 -22.859375 18.5 -22.859375 C 17.195312 -22.859375 15.90625 -22.328125 14.625 -21.265625 C 13.34375 -20.203125 12.703125 -19.070312 12.703125 -17.875 Z M 20.28125 -17.875 "/></g></g></g><g fill="#31a768" fill-opacity="1"><g transform="translate(263.526101, 55.884436)"><g/></g></g><g fill="#31a768" fill-opacity="1"><g transform="translate(278.746079, 55.884436)"><g><path d="M 27.859375 -40.984375 L 44.109375 -7.40625 C 44.785156 -6.039062 45.125 -5.015625 45.125 -4.328125 C 45.125 -2.890625 43.960938 -1.585938 41.640625 -0.421875 C 40.273438 0.265625 39.203125 0.609375 38.421875 0.609375 C 37.640625 0.609375 36.992188 0.425781 36.484375 0.0625 C 35.984375 -0.300781 35.625 -0.679688 35.40625 -1.078125 C 35.1875 -1.484375 34.878906 -2.085938 34.484375 -2.890625 L 31.34375 -9.390625 L 14.6875 -9.390625 L 11.546875 -2.890625 C 11.148438 -2.085938 10.84375 -1.503906 10.625 -1.140625 C 10.40625 -0.785156 10.039062 -0.414062 9.53125 -0.03125 C 9.03125 0.351562 8.390625 0.546875 7.609375 0.546875 C 6.828125 0.546875 5.753906 0.203125 4.390625 -0.484375 C 2.066406 -1.609375 0.90625 -2.890625 0.90625 -4.328125 C 0.90625 -5.015625 1.242188 -6.039062 1.921875 -7.40625 L 18.171875 -41.03125 C 18.609375 -41.957031 19.28125 -42.703125 20.1875 -43.265625 C 21.09375 -43.828125 22.046875 -44.109375 23.046875 -44.109375 C 25.210938 -44.109375 26.816406 -43.066406 27.859375 -40.984375 Z M 22.984375 -26.53125 L 19.015625 -18.296875 L 27.015625 -18.296875 Z M 22.984375 -26.53125 "/></g></g></g><g fill="#31a768" fill-opacity="1"><g transform="translate(324.766949, 55.884436)"><g><path d="M 2.40625 8.609375 L 2.40625 -26.53125 C 2.40625 -27.457031 2.4375 -28.140625 2.5 -28.578125 C 2.5625 -29.023438 2.734375 -29.523438 3.015625 -30.078125 C 3.566406 -31.160156 4.90625 -31.703125 7.03125 -31.703125 C 9.164062 -31.703125 10.601562 -31.429688 11.34375 -30.890625 C 12.082031 -30.347656 12.515625 -29.554688 12.640625 -28.515625 C 14.160156 -30.609375 16.554688 -31.65625 19.828125 -31.65625 C 23.097656 -31.65625 26.195312 -30.109375 29.125 -27.015625 C 32.050781 -23.929688 33.515625 -20.34375 33.515625 -16.25 C 33.515625 -12.15625 32.0625 -8.5625 29.15625 -5.46875 C 26.25 -2.382812 23.148438 -0.84375 19.859375 -0.84375 C 16.566406 -0.84375 14.179688 -1.765625 12.703125 -3.609375 L 12.703125 8.546875 C 12.703125 9.460938 12.671875 10.140625 12.609375 10.578125 C 12.546875 11.023438 12.363281 11.539062 12.0625 12.125 C 11.757812 12.707031 11.25 13.117188 10.53125 13.359375 C 9.8125 13.597656 8.828125 13.71875 7.578125 13.71875 C 6.335938 13.71875 5.34375 13.597656 4.59375 13.359375 C 3.851562 13.117188 3.332031 12.71875 3.03125 12.15625 C 2.738281 11.59375 2.5625 11.085938 2.5 10.640625 C 2.4375 10.203125 2.40625 9.523438 2.40625 8.609375 Z M 14.3125 -19.734375 C 13.394531 -18.648438 12.9375 -17.46875 12.9375 -16.1875 C 12.9375 -14.90625 13.40625 -13.734375 14.34375 -12.671875 C 15.289062 -11.609375 16.492188 -11.078125 17.953125 -11.078125 C 19.421875 -11.078125 20.664062 -11.597656 21.6875 -12.640625 C 22.707031 -13.679688 23.21875 -14.863281 23.21875 -16.1875 C 23.21875 -17.507812 22.738281 -18.703125 21.78125 -19.765625 C 20.820312 -20.828125 19.566406 -21.359375 18.015625 -21.359375 C 16.472656 -21.359375 15.238281 -20.816406 14.3125 -19.734375 Z M 14.3125 -19.734375 "/></g></g></g><g fill="#31a768" fill-opacity="1"><g transform="translate(359.778891, 55.884436)"><g><path d="M 23.953125 -31.34375 C 24.710938 -31.101562 25.34375 -30.691406 25.84375 -30.109375 C 26.34375 -29.535156 26.59375 -28.601562 26.59375 -27.3125 C 26.59375 -26.03125 26.210938 -24.625 25.453125 -23.09375 C 24.691406 -21.570312 23.585938 -20.8125 22.140625 -20.8125 C 21.421875 -20.8125 20.726562 -20.972656 20.0625 -21.296875 C 19.40625 -21.617188 18.535156 -21.78125 17.453125 -21.78125 C 16.367188 -21.78125 15.351562 -21.398438 14.40625 -20.640625 C 13.46875 -19.878906 13 -18.957031 13 -17.875 L 13 -5.234375 C 13 -4.304688 12.96875 -3.613281 12.90625 -3.15625 C 12.84375 -2.695312 12.648438 -2.164062 12.328125 -1.5625 C 11.734375 -0.519531 10.171875 0 7.640625 0 C 5.710938 0 4.328125 -0.335938 3.484375 -1.015625 C 2.847656 -1.578125 2.488281 -2.441406 2.40625 -3.609375 C 2.40625 -4.015625 2.40625 -4.597656 2.40625 -5.359375 L 2.40625 -26.46875 C 2.40625 -27.394531 2.4375 -28.085938 2.5 -28.546875 C 2.5625 -29.015625 2.734375 -29.523438 3.015625 -30.078125 C 3.566406 -31.160156 5.128906 -31.703125 7.703125 -31.703125 C 10.109375 -31.703125 11.613281 -31.242188 12.21875 -30.328125 C 12.65625 -29.679688 12.875 -29.019531 12.875 -28.34375 C 13.070312 -28.625 13.363281 -28.960938 13.75 -29.359375 C 14.132812 -29.765625 14.945312 -30.304688 16.1875 -30.984375 C 17.425781 -31.671875 18.515625 -32.015625 19.453125 -32.015625 C 20.398438 -32.015625 21.195312 -31.960938 21.84375 -31.859375 C 22.488281 -31.753906 23.191406 -31.582031 23.953125 -31.34375 Z M 23.953125 -31.34375 "/></g></g></g><g fill="#31a768" fill-opacity="1"><g transform="translate(387.271078, 55.884436)"><g><path d="M 32.96875 -19.640625 C 32.96875 -17.179688 32.351562 -15.359375 31.125 -14.171875 C 29.90625 -12.984375 28.554688 -12.390625 27.078125 -12.390625 L 12.8125 -12.390625 C 12.8125 -11.265625 13.472656 -10.320312 14.796875 -9.5625 C 16.117188 -8.800781 17.445312 -8.421875 18.78125 -8.421875 C 21.101562 -8.421875 22.925781 -8.660156 24.25 -9.140625 L 24.90625 -9.390625 C 25.875 -9.828125 26.675781 -10.046875 27.3125 -10.046875 C 28.601562 -10.046875 29.707031 -9.144531 30.625 -7.34375 C 31.144531 -6.257812 31.40625 -5.335938 31.40625 -4.578125 C 31.40625 -1.003906 27.132812 0.78125 18.59375 0.78125 C 15.625 0.78125 12.984375 0.269531 10.671875 -0.75 C 8.367188 -1.769531 6.578125 -3.125 5.296875 -4.8125 C 2.765625 -8.0625 1.5 -11.691406 1.5 -15.703125 C 1.5 -20.753906 3.132812 -24.796875 6.40625 -27.828125 C 9.675781 -30.859375 13.757812 -32.375 18.65625 -32.375 C 24.226562 -32.375 28.316406 -30.40625 30.921875 -26.46875 C 32.285156 -24.382812 32.96875 -22.109375 32.96875 -19.640625 Z M 20.28125 -17.875 C 21.800781 -17.875 22.5625 -18.515625 22.5625 -19.796875 C 22.5625 -20.722656 22.207031 -21.460938 21.5 -22.015625 C 20.800781 -22.578125 19.800781 -22.859375 18.5 -22.859375 C 17.195312 -22.859375 15.90625 -22.328125 14.625 -21.265625 C 13.34375 -20.203125 12.703125 -19.070312 12.703125 -17.875 Z M 20.28125 -17.875 "/></g></g></g><g fill="#31a768" fill-opacity="1"><g transform="translate(421.741613, 55.884436)"><g><path d="M 20.03125 -31.703125 C 24.039062 -31.703125 27.378906 -30.164062 30.046875 -27.09375 C 32.722656 -24.03125 34.0625 -20.296875 34.0625 -15.890625 L 34.0625 -5.296875 C 34.0625 -4.367188 34.03125 -3.675781 33.96875 -3.21875 C 33.90625 -2.757812 33.734375 -2.25 33.453125 -1.6875 C 32.890625 -0.601562 31.328125 -0.0625 28.765625 -0.0625 C 25.910156 -0.0625 24.265625 -0.800781 23.828125 -2.28125 C 23.585938 -2.96875 23.46875 -3.992188 23.46875 -5.359375 L 23.46875 -15.953125 C 23.46875 -17.585938 22.992188 -18.867188 22.046875 -19.796875 C 21.109375 -20.722656 19.847656 -21.1875 18.265625 -21.1875 C 16.679688 -21.1875 15.394531 -20.703125 14.40625 -19.734375 C 13.425781 -18.773438 12.9375 -17.515625 12.9375 -15.953125 L 12.9375 -5.296875 C 12.9375 -4.367188 12.90625 -3.675781 12.84375 -3.21875 C 12.78125 -2.757812 12.59375 -2.25 12.28125 -1.6875 C 11.757812 -0.601562 10.210938 -0.0625 7.640625 -0.0625 C 5.109375 -0.0625 3.566406 -0.601562 3.015625 -1.6875 C 2.734375 -2.289062 2.5625 -2.820312 2.5 -3.28125 C 2.4375 -3.738281 2.40625 -4.429688 2.40625 -5.359375 L 2.40625 -26.65625 C 2.40625 -27.539062 2.4375 -28.210938 2.5 -28.671875 C 2.5625 -29.128906 2.75 -29.640625 3.0625 -30.203125 C 3.625 -31.203125 5.171875 -31.703125 7.703125 -31.703125 C 10.148438 -31.703125 11.65625 -31.242188 12.21875 -30.328125 C 12.613281 -29.640625 12.8125 -28.816406 12.8125 -27.859375 C 12.976562 -28.140625 13.335938 -28.539062 13.890625 -29.0625 C 14.453125 -29.582031 15 -30.003906 15.53125 -30.328125 C 16.882812 -31.242188 18.382812 -31.703125 20.03125 -31.703125 Z M 20.03125 -31.703125 "/></g></g></g><g fill="#31a768" fill-opacity="1"><g transform="translate(458.197353, 55.884436)"><g><path d="M 23.671875 -44.921875 C 23.972656 -45.503906 24.503906 -45.914062 25.265625 -46.15625 C 26.035156 -46.394531 27.050781 -46.515625 28.3125 -46.515625 C 29.570312 -46.515625 30.582031 -46.394531 31.34375 -46.15625 C 32.113281 -45.914062 32.644531 -45.492188 32.9375 -44.890625 C 33.238281 -44.285156 33.421875 -43.753906 33.484375 -43.296875 C 33.546875 -42.835938 33.578125 -42.144531 33.578125 -41.21875 L 33.578125 -5.296875 C 33.578125 -4.367188 33.546875 -3.675781 33.484375 -3.21875 C 33.421875 -2.757812 33.226562 -2.25 32.90625 -1.6875 C 32.3125 -0.601562 30.617188 -0.0625 27.828125 -0.0625 C 25.035156 -0.0625 23.484375 -1.046875 23.171875 -3.015625 C 21.484375 -1.085938 19.132812 -0.125 16.125 -0.125 C 12.507812 -0.125 9.21875 -1.695312 6.25 -4.84375 C 3.289062 -7.988281 1.8125 -11.65625 1.8125 -15.84375 C 1.8125 -20.039062 3.300781 -23.722656 6.28125 -26.890625 C 9.269531 -30.066406 12.550781 -31.65625 16.125 -31.65625 C 19.09375 -31.65625 21.398438 -30.648438 23.046875 -28.640625 L 23.046875 -41.28125 C 23.046875 -42.195312 23.070312 -42.882812 23.125 -43.34375 C 23.1875 -43.8125 23.367188 -44.335938 23.671875 -44.921875 Z M 13.890625 -12.21875 C 14.941406 -11.132812 16.207031 -10.59375 17.6875 -10.59375 C 19.175781 -10.59375 20.410156 -11.132812 21.390625 -12.21875 C 22.367188 -13.300781 22.859375 -14.492188 22.859375 -15.796875 C 22.859375 -17.097656 22.382812 -18.3125 21.4375 -19.4375 C 20.5 -20.5625 19.226562 -21.125 17.625 -21.125 C 16.019531 -21.125 14.734375 -20.570312 13.765625 -19.46875 C 12.804688 -18.363281 12.328125 -17.148438 12.328125 -15.828125 C 12.328125 -14.503906 12.847656 -13.300781 13.890625 -12.21875 Z M 13.890625 -12.21875 "/></g></g></g><g fill="#31a768" fill-opacity="1"><g transform="translate(494.17181, 55.884436)"><g><path d="M 32.96875 -19.640625 C 32.96875 -17.179688 32.351562 -15.359375 31.125 -14.171875 C 29.90625 -12.984375 28.554688 -12.390625 27.078125 -12.390625 L 12.8125 -12.390625 C 12.8125 -11.265625 13.472656 -10.320312 14.796875 -9.5625 C 16.117188 -8.800781 17.445312 -8.421875 18.78125 -8.421875 C 21.101562 -8.421875 22.925781 -8.660156 24.25 -9.140625 L 24.90625 -9.390625 C 25.875 -9.828125 26.675781 -10.046875 27.3125 -10.046875 C 28.601562 -10.046875 29.707031 -9.144531 30.625 -7.34375 C 31.144531 -6.257812 31.40625 -5.335938 31.40625 -4.578125 C 31.40625 -1.003906 27.132812 0.78125 18.59375 0.78125 C 15.625 0.78125 12.984375 0.269531 10.671875 -0.75 C 8.367188 -1.769531 6.578125 -3.125 5.296875 -4.8125 C 2.765625 -8.0625 1.5 -11.691406 1.5 -15.703125 C 1.5 -20.753906 3.132812 -24.796875 6.40625 -27.828125 C 9.675781 -30.859375 13.757812 -32.375 18.65625 -32.375 C 24.226562 -32.375 28.316406 -30.40625 30.921875 -26.46875 C 32.285156 -24.382812 32.96875 -22.109375 32.96875 -19.640625 Z M 20.28125 -17.875 C 21.800781 -17.875 22.5625 -18.515625 22.5625 -19.796875 C 22.5625 -20.722656 22.207031 -21.460938 21.5 -22.015625 C 20.800781 -22.578125 19.800781 -22.859375 18.5 -22.859375 C 17.195312 -22.859375 15.90625 -22.328125 14.625 -21.265625 C 13.34375 -20.203125 12.703125 -19.070312 12.703125 -17.875 Z M 20.28125 -17.875 "/></g></g></g><g fill="#31a768" fill-opacity="1"><g transform="translate(528.642346, 55.884436)"><g><path d="M 23.953125 -31.34375 C 24.710938 -31.101562 25.34375 -30.691406 25.84375 -30.109375 C 26.34375 -29.535156 26.59375 -28.601562 26.59375 -27.3125 C 26.59375 -26.03125 26.210938 -24.625 25.453125 -23.09375 C 24.691406 -21.570312 23.585938 -20.8125 22.140625 -20.8125 C 21.421875 -20.8125 20.726562 -20.972656 20.0625 -21.296875 C 19.40625 -21.617188 18.535156 -21.78125 17.453125 -21.78125 C 16.367188 -21.78125 15.351562 -21.398438 14.40625 -20.640625 C 13.46875 -19.878906 13 -18.957031 13 -17.875 L 13 -5.234375 C 13 -4.304688 12.96875 -3.613281 12.90625 -3.15625 C 12.84375 -2.695312 12.648438 -2.164062 12.328125 -1.5625 C 11.734375 -0.519531 10.171875 0 7.640625 0 C 5.710938 0 4.328125 -0.335938 3.484375 -1.015625 C 2.847656 -1.578125 2.488281 -2.441406 2.40625 -3.609375 C 2.40625 -4.015625 2.40625 -4.597656 2.40625 -5.359375 L 2.40625 -26.46875 C 2.40625 -27.394531 2.4375 -28.085938 2.5 -28.546875 C 2.5625 -29.015625 2.734375 -29.523438 3.015625 -30.078125 C 3.566406 -31.160156 5.128906 -31.703125 7.703125 -31.703125 C 10.109375 -31.703125 11.613281 -31.242188 12.21875 -30.328125 C 12.65625 -29.679688 12.875 -29.019531 12.875 -28.34375 C 13.070312 -28.625 13.363281 -28.960938 13.75 -29.359375 C 14.132812 -29.765625 14.945312 -30.304688 16.1875 -30.984375 C 17.425781 -31.671875 18.515625 -32.015625 19.453125 -32.015625 C 20.398438 -32.015625 21.195312 -31.960938 21.84375 -31.859375 C 22.488281 -31.753906 23.191406 -31.582031 23.953125 -31.34375 Z M 23.953125 -31.34375 "/></g></g></g></g></g><g transform="matrix(1, 0, 0, 1, 36, 48)"><g clip-path="url(#ee281c964e)"><g clip-path="url(#ac54681d5c)"><g fill="#f59d06" fill-opacity="1"><g transform="translate(0.340961, 124.144669)"><g><path d="M 24.375 -87.65625 C 28.582031 -88.125 32.648438 -88.476562 36.578125 -88.71875 C 38.523438 -88.832031 40.75 -88.890625 43.25 -88.890625 C 45.46875 -88.929688 47.648438 -88.875 49.796875 -88.71875 C 52.128906 -88.5625 54.171875 -88.363281 55.921875 -88.125 C 57.992188 -87.78125 59.710938 -87.410156 61.078125 -87.015625 C 62.742188 -86.472656 64.023438 -85.925781 64.921875 -85.375 C 68.273438 -83.28125 70.984375 -80.75 73.046875 -77.78125 C 75.078125 -74.78125 75.332031 -71.296875 73.8125 -67.328125 C 73.695312 -66.972656 73.5625 -66.640625 73.40625 -66.328125 C 72.082031 -63.328125 70.070312 -60.617188 67.375 -58.203125 C 67.144531 -57.972656 66.796875 -57.660156 66.328125 -57.265625 C 66.097656 -57.078125 65.707031 -56.785156 65.15625 -56.390625 C 65.4375 -56.273438 65.726562 -56.179688 66.03125 -56.109375 C 66.3125 -55.984375 66.609375 -55.882812 66.921875 -55.8125 C 67.191406 -55.695312 67.484375 -55.597656 67.796875 -55.515625 C 68.066406 -55.398438 68.335938 -55.304688 68.609375 -55.234375 C 71.535156 -54.023438 74.144531 -52.640625 76.4375 -51.078125 C 76.75 -50.878906 77.21875 -50.546875 77.84375 -50.078125 C 80.21875 -48.285156 82.421875 -46.203125 84.453125 -43.828125 C 86.472656 -41.410156 87.816406 -38.742188 88.484375 -35.828125 C 88.640625 -35.003906 88.753906 -34.1875 88.828125 -33.375 C 89.140625 -26.789062 87.269531 -21.488281 83.21875 -17.46875 C 79.125 -13.457031 74.21875 -10.398438 68.5 -8.296875 C 66.394531 -7.515625 63.859375 -6.738281 60.890625 -5.96875 C 57.773438 -5.144531 54.929688 -4.519531 52.359375 -4.09375 C 48.460938 -3.351562 44.488281 -2.691406 40.4375 -2.109375 C 36.351562 -1.484375 32.34375 -0.878906 28.40625 -0.296875 C 27.78125 -0.140625 26.84375 -0.0390625 25.59375 0 L 22.734375 0 C 19.347656 0 16.523438 -0.410156 14.265625 -1.234375 C 11.960938 -2.003906 10.03125 -3.910156 8.46875 -6.953125 C 7.613281 -8.585938 6.914062 -10.320312 6.375 -12.15625 C 5.789062 -13.945312 5.300781 -15.738281 4.90625 -17.53125 C 3.039062 -25.363281 1.816406 -33.679688 1.234375 -42.484375 C 0.640625 -51.253906 0.695312 -59.648438 1.40625 -67.671875 C 1.632812 -70.015625 1.925781 -72.0625 2.28125 -73.8125 C 2.28125 -73.96875 2.300781 -74.125 2.34375 -74.28125 C 2.375 -74.4375 2.410156 -74.613281 2.453125 -74.8125 C 2.453125 -74.925781 2.492188 -75.078125 2.578125 -75.265625 C 2.609375 -75.421875 2.644531 -75.578125 2.6875 -75.734375 C 2.769531 -76.015625 2.847656 -76.347656 2.921875 -76.734375 C 3.078125 -77.242188 3.175781 -77.578125 3.21875 -77.734375 C 3.757812 -79.441406 4.457031 -80.941406 5.3125 -82.234375 C 6.132812 -83.515625 7.476562 -84.488281 9.34375 -85.15625 C 9.582031 -85.226562 9.816406 -85.300781 10.046875 -85.375 C 10.285156 -85.414062 10.519531 -85.492188 10.75 -85.609375 C 14.757812 -86.429688 19.300781 -87.113281 24.375 -87.65625 Z M 26.765625 -62.1875 C 26.765625 -62.101562 26.785156 -62.023438 26.828125 -61.953125 C 26.828125 -61.867188 26.828125 -61.804688 26.828125 -61.765625 C 26.828125 -61.691406 26.847656 -61.613281 26.890625 -61.53125 C 26.890625 -61.457031 26.890625 -61.398438 26.890625 -61.359375 L 27 -60.953125 C 27.3125 -59.429688 28.363281 -58.710938 30.15625 -58.796875 C 31.90625 -58.867188 33.425781 -59.117188 34.71875 -59.546875 C 34.875 -59.628906 35.007812 -59.671875 35.125 -59.671875 C 35.164062 -59.671875 35.222656 -59.691406 35.296875 -59.734375 C 35.335938 -59.765625 35.394531 -59.800781 35.46875 -59.84375 C 35.707031 -59.914062 35.847656 -59.953125 35.890625 -59.953125 C 38.222656 -60.972656 40.070312 -62.648438 41.4375 -64.984375 C 42.757812 -67.328125 42.78125 -69.609375 41.5 -71.828125 C 41.414062 -71.898438 41.375 -71.957031 41.375 -72 C 41.332031 -72 41.296875 -72.019531 41.265625 -72.0625 C 41.222656 -72.09375 41.203125 -72.128906 41.203125 -72.171875 C 39.640625 -74.316406 37.164062 -75.390625 33.78125 -75.390625 C 33.664062 -75.390625 33.566406 -75.367188 33.484375 -75.328125 L 32.84375 -75.328125 C 32.769531 -75.328125 32.710938 -75.328125 32.671875 -75.328125 C 32.628906 -75.285156 32.585938 -75.265625 32.546875 -75.265625 C 31.847656 -75.191406 30.9375 -74.976562 29.8125 -74.625 C 28.988281 -74.394531 28.242188 -73.945312 27.578125 -73.28125 L 27.46875 -73.171875 L 27.46875 -72.9375 L 27.40625 -72.875 C 27.363281 -72.832031 27.34375 -72.796875 27.34375 -72.765625 L 27.296875 -72.703125 C 27.296875 -72.660156 27.273438 -72.617188 27.234375 -72.578125 L 27.234375 -72.53125 C 27.234375 -72.488281 27.191406 -72.425781 27.109375 -72.34375 C 27.109375 -72.226562 27.09375 -72.148438 27.0625 -72.109375 C 27.0625 -71.992188 27.039062 -71.914062 27 -71.875 C 26.925781 -70.476562 26.867188 -69.078125 26.828125 -67.671875 C 26.785156 -66.234375 26.765625 -64.8125 26.765625 -63.40625 Z M 34.078125 -13.390625 C 34.691406 -13.304688 35.351562 -13.265625 36.0625 -13.265625 C 36.601562 -13.222656 37.59375 -13.242188 39.03125 -13.328125 C 41.570312 -13.441406 44.222656 -13.789062 46.984375 -14.375 C 49.710938 -14.914062 52.148438 -15.890625 54.296875 -17.296875 C 57.921875 -19.671875 59.4375 -22.90625 58.84375 -27 C 58.769531 -27.3125 58.734375 -27.523438 58.734375 -27.640625 C 58.691406 -27.722656 58.648438 -27.820312 58.609375 -27.9375 C 58.578125 -28.007812 58.5625 -28.109375 58.5625 -28.234375 C 57.738281 -31.078125 56.117188 -33.21875 53.703125 -34.65625 C 51.253906 -36.0625 48.410156 -36.765625 45.171875 -36.765625 C 43.960938 -36.765625 42.753906 -36.703125 41.546875 -36.578125 C 39.015625 -36.390625 36.675781 -36.019531 34.53125 -35.46875 C 33.476562 -35.15625 32.546875 -34.863281 31.734375 -34.59375 C 30.835938 -34.207031 30.210938 -33.835938 29.859375 -33.484375 C 29.390625 -33.097656 29.195312 -32.691406 29.28125 -32.265625 C 29.351562 -31.679688 29.507812 -30.84375 29.75 -29.75 C 30.53125 -25.582031 31.484375 -21.585938 32.609375 -17.765625 C 32.835938 -16.941406 33.09375 -16.203125 33.375 -15.546875 C 33.488281 -15.191406 33.601562 -14.84375 33.71875 -14.5 C 33.832031 -14.101562 33.953125 -13.734375 34.078125 -13.390625 Z M 34.078125 -13.390625 "/></g></g></g></g></g></g><g transform="matrix(1, 0, 0, 1, 128, 38)"><g clip-path="url(#ac190264d4)"><g fill="#f88bad" fill-opacity="1"><g transform="translate(0.932338, 124.46628)"><g><path d="M 22.84375 -52.359375 C 27.488281 -55.285156 31.910156 -56.691406 36.109375 -56.578125 C 40.316406 -56.421875 43.457031 -55.328125 45.53125 -53.296875 C 47.59375 -51.273438 47.84375 -48.394531 46.28125 -44.65625 C 44.726562 -40.90625 42.507812 -39.363281 39.625 -40.03125 C 36.738281 -40.695312 33.773438 -40.425781 30.734375 -39.21875 C 27.703125 -38.007812 25.894531 -34.832031 25.3125 -29.6875 C 24.71875 -24.507812 25.414062 -18.351562 27.40625 -11.21875 C 27.675781 -10.28125 27.96875 -9.304688 28.28125 -8.296875 C 28.550781 -7.242188 28.726562 -6.234375 28.8125 -5.265625 C 28.851562 -3.429688 28.070312 -2.125 26.46875 -1.34375 C 24.832031 -0.5625 22.945312 -0.113281 20.8125 0 C 18.664062 0.113281 16.539062 -0.0195312 14.4375 -0.40625 C 12.332031 -0.800781 10.851562 -1.269531 10 -1.8125 C 8.394531 -2.78125 7.203125 -4.222656 6.421875 -6.140625 C 5.609375 -8.046875 4.96875 -9.914062 4.5 -11.75 C 3.601562 -15.25 2.898438 -19.707031 2.390625 -25.125 C 1.890625 -30.5 1.640625 -35.175781 1.640625 -39.15625 C 1.597656 -43.09375 1.734375 -46.519531 2.046875 -49.4375 C 2.316406 -52.363281 2.898438 -54.679688 3.796875 -56.390625 C 4.578125 -57.796875 5.53125 -58.753906 6.65625 -59.265625 C 8.019531 -59.878906 9.617188 -60.25 11.453125 -60.375 C 13.242188 -60.488281 14.863281 -60.46875 16.3125 -60.3125 C 18.40625 -60.070312 20.054688 -59.46875 21.265625 -58.5 C 22.472656 -57.519531 22.882812 -55.609375 22.5 -52.765625 Z M 22.84375 -52.359375 "/></g></g></g></g></g><g transform="matrix(1, 0, 0, 1, 167, 42)"><g clip-path="url(#fbb2a54869)"><g fill="#31a768" fill-opacity="1"><g transform="translate(10.839783, 125.853447)"><g><path d="M 5.421875 -58.40625 C 6.460938 -58.65625 7.582031 -58.820312 8.78125 -58.90625 C 9.320312 -58.9375 9.847656 -58.957031 10.359375 -58.96875 C 12.785156 -58.925781 14.523438 -58.859375 15.578125 -58.765625 C 17.078125 -58.597656 18.28125 -58.421875 19.1875 -58.234375 C 19.394531 -58.222656 19.675781 -58.128906 20.03125 -57.953125 C 20.195312 -57.847656 20.421875 -57.660156 20.703125 -57.390625 L 21.453125 -56.796875 C 21.585938 -56.691406 21.8125 -56.472656 22.125 -56.140625 C 22.257812 -55.972656 22.398438 -55.695312 22.546875 -55.3125 L 22.984375 -53.9375 C 22.992188 -53.625 23.097656 -53.160156 23.296875 -52.546875 C 23.347656 -52.390625 23.390625 -52.132812 23.421875 -51.78125 C 23.492188 -48.875 23.421875 -44.617188 23.203125 -39.015625 C 23.117188 -36.378906 23.171875 -33.609375 23.359375 -30.703125 C 23.828125 -24.046875 24.863281 -17.066406 26.46875 -9.765625 C 26.46875 -8.546875 26.367188 -7.363281 26.171875 -6.21875 C 25.972656 -5.09375 25.753906 -4.300781 25.515625 -3.84375 C 25.097656 -3.113281 24.117188 -2.539062 22.578125 -2.125 C 21.890625 -1.925781 21.117188 -1.796875 20.265625 -1.734375 C 19.410156 -1.640625 18.535156 -1.582031 17.640625 -1.5625 C 16.046875 -1.5 14.300781 -1.5625 12.40625 -1.75 C 11.007812 -1.863281 9.796875 -2.035156 8.765625 -2.265625 L 8.03125 -2.578125 C 7.875 -2.640625 7.609375 -2.816406 7.234375 -3.109375 C 7.066406 -3.222656 6.835938 -3.421875 6.546875 -3.703125 C 6.546875 -3.671875 6.332031 -3.890625 5.90625 -4.359375 C 5.757812 -4.472656 5.609375 -4.753906 5.453125 -5.203125 C 5.265625 -5.585938 5.117188 -6.050781 5.015625 -6.59375 C 4.847656 -7.40625 3.90625 -14 2.1875 -26.375 C 1.882812 -28.539062 1.664062 -30.65625 1.53125 -32.71875 L 1.515625 -33 L 1.5 -33.296875 L 1.484375 -33.578125 C 1.472656 -33.660156 1.46875 -33.757812 1.46875 -33.875 C 0.863281 -43.007812 2.179688 -51.1875 5.421875 -58.40625 Z M 18.78125 -80.65625 C 20.957031 -78.84375 22.132812 -76.554688 22.3125 -73.796875 C 22.488281 -71.078125 21.617188 -68.675781 19.703125 -66.59375 C 17.765625 -64.507812 15.335938 -63.367188 12.421875 -63.171875 C 9.546875 -62.984375 7.015625 -63.796875 4.828125 -65.609375 C 2.628906 -67.421875 1.441406 -69.6875 1.265625 -72.40625 C 1.085938 -75.164062 1.96875 -77.585938 3.90625 -79.671875 C 5.84375 -81.710938 8.25 -82.828125 11.125 -83.015625 C 14.039062 -83.210938 16.59375 -82.425781 18.78125 -80.65625 Z M 18.78125 -80.65625 "/></g></g></g></g></g><g transform="matrix(1, 0, 0, 1, 206, 37)"><g clip-path="url(#b5c99ce59f)"><g fill="#db5b2a" fill-opacity="1"><g transform="translate(1.048256, 127.872881)"><g><path d="M 26.640625 -53.828125 C 28.691406 -55.390625 31.503906 -56.351562 35.078125 -56.71875 C 38.609375 -57.082031 42.328125 -55.976562 46.234375 -53.40625 C 50.367188 -50.664062 53.519531 -47.046875 55.6875 -42.546875 C 57.820312 -38.003906 59.332031 -33.445312 60.21875 -28.875 C 60.8125 -25.65625 61.3125 -21.191406 61.71875 -15.484375 C 62.125 -9.785156 61.5625 -5.390625 60.03125 -2.296875 C 59.507812 -1.203125 58.6875 -0.554688 57.5625 -0.359375 C 55.675781 -0.0351562 53.382812 -0.296875 50.6875 -1.140625 C 48 -1.984375 46.148438 -2.890625 45.140625 -3.859375 C 44.660156 -4.222656 44.335938 -4.664062 44.171875 -5.1875 C 43.859375 -5.90625 43.757812 -6.707031 43.875 -7.59375 C 44 -8.476562 44.140625 -9.300781 44.296875 -10.0625 C 44.816406 -12.957031 44.957031 -16.03125 44.71875 -19.28125 C 44.476562 -22.5 44 -25.492188 43.28125 -28.265625 C 42.789062 -30.148438 42.164062 -31.757812 41.40625 -33.09375 C 39 -37.03125 36.207031 -38.835938 33.03125 -38.515625 C 29.851562 -38.148438 27.5625 -34.753906 26.15625 -28.328125 C 25.550781 -24.515625 25.992188 -18.929688 27.484375 -11.578125 C 27.722656 -10.609375 27.960938 -9.601562 28.203125 -8.5625 C 28.410156 -7.476562 28.515625 -6.429688 28.515625 -5.421875 C 28.390625 -3.535156 27.460938 -2.191406 25.734375 -1.390625 C 24.003906 -0.585938 22.035156 -0.125 19.828125 0 C 17.617188 0.125 15.445312 -0.015625 13.3125 -0.421875 C 11.144531 -0.828125 9.640625 -1.3125 8.796875 -1.875 C 7.234375 -2.875 6.128906 -4.359375 5.484375 -6.328125 C 4.796875 -8.296875 4.273438 -10.222656 3.921875 -12.109375 C 3.273438 -15.734375 2.910156 -20.335938 2.828125 -25.921875 C 2.710938 -31.460938 2.691406 -35.457031 2.765625 -37.90625 C 2.847656 -40.320312 3.050781 -43.117188 3.375 -46.296875 C 3.65625 -49.460938 4.757812 -53.414062 6.6875 -58.15625 C 7.613281 -59.601562 8.679688 -60.585938 9.890625 -61.109375 C 11.328125 -61.753906 12.992188 -62.140625 14.890625 -62.265625 C 16.773438 -62.378906 18.441406 -62.359375 19.890625 -62.203125 C 22.054688 -61.960938 23.722656 -61.335938 24.890625 -60.328125 C 26.054688 -59.328125 26.316406 -57.359375 25.671875 -54.421875 Z M 26.640625 -53.828125 "/></g></g></g></g></g><g transform="matrix(1, 0, 0, 1, 255, 35)"><g clip-path="url(#8d24213749)"><g fill="#0987c7" fill-opacity="1"><g transform="translate(7.271422, 121.616424)"><g><path d="M 63.203125 -50.484375 C 65.679688 -49.390625 67.613281 -48.226562 69 -47 C 70.570312 -45.5625 71.207031 -44.097656 70.90625 -42.609375 C 70.5625 -40.890625 70.066406 -39.207031 69.421875 -37.5625 C 68.765625 -35.894531 67.84375 -34.390625 66.65625 -33.046875 C 64.96875 -31.109375 63.53125 -30.257812 62.34375 -30.5 C 61.269531 -30.71875 60.273438 -31.097656 59.359375 -31.640625 C 58.390625 -32.203125 57.445312 -32.75 56.53125 -33.28125 C 54.601562 -34.394531 51.867188 -35.242188 48.328125 -35.828125 C 44.742188 -36.390625 41.269531 -36.296875 37.90625 -35.546875 C 34.488281 -34.796875 31.65625 -33.15625 29.40625 -30.625 C 27.144531 -28.070312 26.382812 -24.210938 27.125 -19.046875 C 27.632812 -15.242188 29.648438 -12.203125 33.171875 -9.921875 C 36.628906 -7.585938 40.367188 -6.21875 44.390625 -5.8125 C 47.460938 -5.5 50.863281 -6 54.59375 -7.3125 C 58.3125 -8.644531 61.488281 -7.273438 64.125 -3.203125 C 65.632812 -0.828125 65.203125 1.128906 62.828125 2.671875 C 60.441406 4.253906 58.40625 5.414062 56.71875 6.15625 C 55.539062 6.675781 54.382812 7.097656 53.25 7.421875 C 50.15625 8.304688 47.171875 8.582031 44.296875 8.25 C 41.421875 7.945312 38.613281 7.382812 35.875 6.5625 C 32.238281 5.457031 28.835938 3.894531 25.671875 1.875 C 23.171875 0.269531 20.878906 -1.65625 18.796875 -3.90625 C 16.648438 -6.125 14.875 -8.6875 13.46875 -11.59375 C 10.882812 -16.925781 9.570312 -22.5625 9.53125 -28.5 C 9.425781 -37.65625 13.082031 -44.546875 20.5 -49.171875 C 24.195312 -51.535156 28.15625 -53.0625 32.375 -53.75 C 36.613281 -54.445312 40.625 -54.71875 44.40625 -54.5625 C 47.601562 -54.4375 50.804688 -54.050781 54.015625 -53.40625 C 57.191406 -52.769531 60.253906 -51.796875 63.203125 -50.484375 Z M 63.203125 -50.484375 "/></g></g></g></g></g><g transform="matrix(1, 0, 0, 1, 321, 66)"><g clip-path="url(#7d5db7147b)"><g fill="#f59d06" fill-opacity="1"><g transform="translate(6.840099, 94.373862)"><g><path d="M 9.390625 -38.890625 C 10.890625 -41.015625 12.523438 -43.046875 14.296875 -44.984375 C 16.035156 -46.890625 17.988281 -48.628906 20.15625 -50.203125 C 21.101562 -50.898438 22.03125 -51.539062 22.9375 -52.125 C 28.707031 -55.894531 34.960938 -58.160156 41.703125 -58.921875 C 47.503906 -59.566406 52.863281 -58.769531 57.78125 -56.53125 C 60.144531 -55.4375 62.390625 -53.75 64.515625 -51.46875 C 66.640625 -49.1875 68.148438 -46.800781 69.046875 -44.3125 C 69.609375 -42.675781 69.953125 -40.976562 70.078125 -39.21875 C 70.179688 -37.445312 70.1875 -35.710938 70.09375 -34.015625 C 69.695312 -28.128906 68.375 -22.945312 66.125 -18.46875 C 64.75 -15.78125 62.953125 -13.226562 60.734375 -10.8125 C 58.503906 -8.382812 56.253906 -6.253906 53.984375 -4.421875 C 50.578125 -1.679688 46.851562 0.492188 42.8125 2.109375 C 38.726562 3.722656 34.484375 4.421875 30.078125 4.203125 C 25.660156 3.890625 21.523438 2.71875 17.671875 0.6875 C 14.742188 -0.832031 12.101562 -2.769531 9.75 -5.125 C 7.351562 -7.445312 5.660156 -10.222656 4.671875 -13.453125 C 3.722656 -16.554688 3.457031 -20.066406 3.875 -23.984375 C 4.519531 -29.648438 6.359375 -34.617188 9.390625 -38.890625 Z M 25.25 -26.84375 C 24.820312 -23.988281 25.976562 -20.78125 28.71875 -17.21875 C 31.4375 -13.675781 34.554688 -12.476562 38.078125 -13.625 C 40.367188 -14.363281 41.875 -15.628906 42.59375 -17.421875 C 43.320312 -19.210938 43.53125 -21.175781 43.21875 -23.3125 C 42.832031 -25.71875 41.765625 -27.816406 40.015625 -29.609375 C 38.273438 -31.390625 36.390625 -32.566406 34.359375 -33.140625 C 32.304688 -33.734375 30.394531 -33.570312 28.625 -32.65625 C 26.832031 -31.738281 25.707031 -29.800781 25.25 -26.84375 Z M 25.25 -26.84375 "/></g></g></g></g></g><g transform="matrix(1, 0, 0, 1, 397, 37)"><g clip-path="url(#2d4f7a09c2)"><g fill="#f88bad" fill-opacity="1"><g transform="translate(3.111535, 132.929218)"><g><path d="M 33.125 -78.171875 C 30.9375 -67.773438 29.515625 -56.253906 28.859375 -43.609375 C 28.210938 -30.972656 28.789062 -19.710938 30.59375 -9.828125 C 30.71875 -8.816406 30.90625 -7.75 31.15625 -6.625 C 31.394531 -5.5 31.515625 -4.394531 31.515625 -3.3125 C 31.347656 -1.382812 30.394531 -0.0703125 28.65625 0.625 C 26.90625 1.332031 24.9375 1.660156 22.75 1.609375 C 20.519531 1.554688 18.363281 1.234375 16.28125 0.640625 C 14.125 0.0351562 12.628906 -0.59375 11.796875 -1.25 C 10.210938 -2.425781 9.082031 -4.082031 8.40625 -6.21875 C 7.75 -8.320312 7.265625 -10.359375 6.953125 -12.328125 C 6.328125 -16.128906 6.003906 -20.960938 5.984375 -26.828125 C 5.953125 -32.640625 6.148438 -38.648438 6.578125 -44.859375 C 6.984375 -51.023438 7.59375 -56.945312 8.40625 -62.625 C 9.195312 -68.238281 10.117188 -72.773438 11.171875 -76.234375 C 12.109375 -79.453125 13.128906 -81.921875 14.234375 -83.640625 C 15.160156 -85.117188 16.234375 -86.082031 17.453125 -86.53125 C 18.878906 -87.039062 20.539062 -87.28125 22.4375 -87.25 C 24.289062 -87.238281 25.96875 -87.082031 27.46875 -86.78125 C 29.582031 -86.351562 31.226562 -85.59375 32.40625 -84.5 C 33.570312 -83.351562 33.8125 -81.242188 33.125 -78.171875 Z M 33.125 -78.171875 "/></g></g></g></g></g><g transform="matrix(1, 0, 0, 1, 371, 45)"><g clip-path="url(#ccdcb5d79c)"><g fill="#31a768" fill-opacity="1"><g transform="translate(93.546518, 129.604372)"><g><path d="M -22.40625 -26.046875 C -24.289062 -30.859375 -25.320312 -35.203125 -25.5 -39.078125 C -25.539062 -40.628906 -25.554688 -41.613281 -25.546875 -42.03125 C -25.546875 -47.988281 -24.226562 -53.59375 -21.59375 -58.84375 C -19.375 -63.320312 -16.296875 -66.863281 -12.359375 -69.46875 C -10.472656 -70.664062 -8.207031 -71.53125 -5.5625 -72.0625 C -2.894531 -72.5625 -0.457031 -72.570312 1.75 -72.09375 C 4.21875 -71.476562 6.847656 -70.15625 9.640625 -68.125 C 13.722656 -65.101562 16.835938 -61.742188 18.984375 -58.046875 C 20.285156 -55.828125 21.269531 -53.351562 21.9375 -50.625 C 22.65625 -47.882812 23.132812 -45.269531 23.375 -42.78125 C 23.726562 -39.039062 23.546875 -35.316406 22.828125 -31.609375 C 22.109375 -27.867188 20.632812 -24.472656 18.40625 -21.421875 C 16.007812 -18.273438 13.226562 -15.785156 10.0625 -13.953125 C 7.53125 -12.484375 4.878906 -11.4375 2.109375 -10.8125 C -0.660156 -10.132812 -3.4375 -10.191406 -6.21875 -10.984375 C -8.96875 -11.691406 -11.644531 -13.101562 -14.25 -15.21875 C -17.976562 -18.226562 -20.695312 -21.835938 -22.40625 -26.046875 Z M -6.265625 -32.09375 C -4.421875 -30.46875 -1.582031 -29.84375 2.25 -30.21875 C 6.09375 -30.570312 8.441406 -32.300781 9.296875 -35.40625 C 9.816406 -37.351562 9.601562 -39.03125 8.65625 -40.4375 C 7.71875 -41.789062 6.410156 -42.84375 4.734375 -43.59375 C 0.921875 -45.269531 -2.828125 -44.625 -6.515625 -41.65625 C -10.222656 -38.675781 -10.140625 -35.488281 -6.265625 -32.09375 Z M -6.265625 -32.09375 "/></g></g></g></g></g><g transform="matrix(1, 0, 0, 1, 491, 41)"><g clip-path="url(#4fc585976a)"><g fill="#db5b2a" fill-opacity="1"><g transform="translate(0.58227, 127.21865)"><g><path d="M 31.0625 -26.5625 C 33.144531 -26.84375 35.171875 -27.765625 37.140625 -29.328125 C 39.097656 -30.847656 40.4375 -32.769531 41.15625 -35.09375 C 41.71875 -37.175781 41.757812 -39.160156 41.28125 -41.046875 C 40.800781 -42.890625 39.5 -44.332031 37.375 -45.375 C 34.007812 -46.96875 30.742188 -46.1875 27.578125 -43.03125 C 24.410156 -39.863281 22.847656 -36.835938 22.890625 -33.953125 C 22.929688 -30.984375 23.796875 -28.941406 25.484375 -27.828125 C 27.117188 -26.660156 28.976562 -26.238281 31.0625 -26.5625 Z M 44.46875 -9.3125 C 41.625 -7.03125 36.773438 -6.25 29.921875 -6.96875 C 23.078125 -7.6875 17.628906 -10.007812 13.578125 -13.9375 C 9.535156 -17.863281 6.875 -21.929688 5.59375 -26.140625 C 4.3125 -30.347656 3.726562 -34.675781 3.84375 -39.125 C 3.925781 -43.53125 4.609375 -47.113281 5.890625 -49.875 C 7.128906 -52.632812 8.972656 -54.9375 11.421875 -56.78125 C 13.816406 -58.625 16.457031 -60.066406 19.34375 -61.109375 C 23.070312 -62.472656 26.976562 -63.035156 31.0625 -62.796875 C 35.070312 -62.472656 38.816406 -61.332031 42.296875 -59.375 C 43.859375 -58.488281 45.34375 -57.523438 46.75 -56.484375 C 47.070312 -57.523438 47.472656 -58.609375 47.953125 -59.734375 C 48.671875 -61.253906 49.710938 -62.4375 51.078125 -63.28125 C 51.835938 -63.71875 53.140625 -64.113281 54.984375 -64.46875 C 56.828125 -64.789062 58.707031 -64.929688 60.625 -64.890625 C 62.507812 -64.859375 64.191406 -64.539062 65.671875 -63.9375 C 67.117188 -63.332031 67.820312 -62.289062 67.78125 -60.8125 C 67.78125 -60.007812 67.660156 -59.207031 67.421875 -58.40625 C 67.140625 -57.5625 66.898438 -56.757812 66.703125 -56 C 64.578125 -48.664062 63.4375 -40.273438 63.28125 -30.828125 C 63.113281 -22.253906 63.128906 -14.820312 63.328125 -8.53125 C 63.535156 -2.195312 62.273438 3.207031 59.546875 7.6875 C 56.828125 12.21875 54.046875 15.164062 51.203125 16.53125 C 48.347656 17.925781 45.421875 18.945312 42.421875 19.59375 C 38.617188 20.425781 34.734375 20.722656 30.765625 20.484375 C 27.796875 20.328125 24.851562 19.910156 21.9375 19.234375 C 18.96875 18.546875 16.125 17.265625 13.40625 15.390625 C 12.394531 14.703125 11.410156 13.921875 10.453125 13.046875 C 9.054688 11.753906 7.253906 9.390625 5.046875 5.953125 C 2.804688 2.503906 2.90625 0.257812 5.34375 -0.78125 C 13.394531 -3.78125 18.484375 -3.660156 20.609375 -0.421875 C 22.691406 2.828125 25.253906 4.890625 28.296875 5.765625 C 31.304688 6.648438 34.53125 6.53125 37.96875 5.40625 C 41.375 4.28125 43.359375 1.632812 43.921875 -2.53125 C 44.441406 -6.6875 44.625 -8.945312 44.46875 -9.3125 Z M 44.46875 -9.3125 "/></g></g></g></g></g><g transform="matrix(1, 0, 0, 1, 555, 39)"><g clip-path="url(#d38b8bf5af)"><g fill="#31a768" fill-opacity="1"><g transform="translate(9.85877, 129.368119)"><g><path d="M 5.5625 -60.015625 C 6.625 -60.285156 7.773438 -60.457031 9.015625 -60.53125 C 9.578125 -60.570312 10.117188 -60.585938 10.640625 -60.578125 C 13.128906 -60.546875 14.921875 -60.484375 16.015625 -60.390625 C 17.546875 -60.210938 18.78125 -60.03125 19.71875 -59.84375 C 19.925781 -59.820312 20.210938 -59.722656 20.578125 -59.546875 C 20.753906 -59.441406 20.988281 -59.253906 21.28125 -58.984375 L 22.046875 -58.375 C 22.160156 -58.257812 22.394531 -58.035156 22.75 -57.703125 C 22.875 -57.503906 23.007812 -57.210938 23.15625 -56.828125 L 23.625 -55.421875 C 23.644531 -55.097656 23.753906 -54.617188 23.953125 -53.984375 C 24.003906 -53.828125 24.039062 -53.570312 24.0625 -53.21875 C 24.144531 -50.21875 24.070312 -45.84375 23.84375 -40.09375 C 23.738281 -37.382812 23.785156 -34.535156 23.984375 -31.546875 C 24.472656 -24.710938 25.539062 -17.546875 27.1875 -10.046875 C 27.195312 -8.785156 27.101562 -7.566406 26.90625 -6.390625 C 26.695312 -5.222656 26.46875 -4.410156 26.21875 -3.953125 C 25.78125 -3.203125 24.773438 -2.613281 23.203125 -2.1875 C 22.492188 -1.976562 21.695312 -1.847656 20.8125 -1.796875 C 19.9375 -1.691406 19.039062 -1.628906 18.125 -1.609375 C 16.488281 -1.546875 14.695312 -1.609375 12.75 -1.796875 C 11.3125 -1.910156 10.0625 -2.085938 9 -2.328125 L 8.25 -2.65625 C 8.09375 -2.71875 7.820312 -2.898438 7.4375 -3.203125 C 7.269531 -3.304688 7.035156 -3.507812 6.734375 -3.8125 C 6.734375 -3.769531 6.515625 -3.992188 6.078125 -4.484375 C 5.910156 -4.597656 5.75 -4.890625 5.59375 -5.359375 C 5.414062 -5.742188 5.265625 -6.210938 5.140625 -6.765625 C 4.972656 -7.609375 4.003906 -14.390625 2.234375 -27.109375 C 1.929688 -29.335938 1.710938 -31.507812 1.578125 -33.625 L 1.546875 -33.921875 L 1.515625 -34.515625 C 1.503906 -34.597656 1.5 -34.703125 1.5 -34.828125 C 0.875 -44.210938 2.226562 -52.609375 5.5625 -60.015625 Z M 19.296875 -82.875 C 21.535156 -81.007812 22.75 -78.660156 22.9375 -75.828125 C 23.125 -73.023438 22.226562 -70.5625 20.25 -68.4375 C 18.257812 -66.289062 15.769531 -65.117188 12.78125 -64.921875 C 9.8125 -64.734375 7.207031 -65.566406 4.96875 -67.421875 C 2.71875 -69.273438 1.5 -71.601562 1.3125 -74.40625 C 1.125 -77.238281 2.023438 -79.722656 4.015625 -81.859375 C 5.992188 -83.960938 8.46875 -85.109375 11.4375 -85.296875 C 14.425781 -85.492188 17.046875 -84.6875 19.296875 -82.875 Z M 19.296875 -82.875 "/></g></g></g></g></g><g transform="matrix(1, 0, 0, 1, 593, 36)"><g clip-path="url(#69725aae0c)"><g fill="#f59d06" fill-opacity="1"><g transform="translate(2.240708, 123.923449)"><g><path d="M 24.90625 -23.609375 C 23.519531 -21.429688 23.613281 -19.046875 25.1875 -16.453125 C 26.757812 -13.804688 29.507812 -12.992188 33.4375 -14.015625 C 35.925781 -14.648438 37.820312 -15.660156 39.125 -17.046875 C 40.4375 -18.441406 41.300781 -19.953125 41.71875 -21.578125 C 42.101562 -23.359375 41.71875 -24.882812 40.5625 -26.15625 C 39.363281 -27.457031 37.851562 -28.304688 36.03125 -28.703125 C 34.175781 -29.046875 32.195312 -28.851562 30.09375 -28.125 C 28.007812 -27.34375 26.28125 -25.835938 24.90625 -23.609375 Z M 37.78125 -45.359375 C 33.988281 -46.367188 30.21875 -46.617188 26.46875 -46.109375 C 23.601562 -45.722656 21.164062 -44.832031 19.15625 -43.4375 C 17.101562 -42 14.800781 -41.582031 12.25 -42.1875 C 9.675781 -42.8125 7.894531 -44.347656 6.90625 -46.796875 C 5.90625 -49.210938 6.257812 -51.25 7.96875 -52.90625 C 9.632812 -54.539062 11.125 -55.78125 12.4375 -56.625 C 13.363281 -57.257812 14.300781 -57.789062 15.25 -58.21875 C 17.800781 -59.4375 20.425781 -60.207031 23.125 -60.53125 C 25.800781 -60.84375 28.476562 -60.988281 31.15625 -60.96875 C 34.75 -60.894531 38.242188 -60.414062 41.640625 -59.53125 C 44.304688 -58.882812 46.894531 -57.957031 49.40625 -56.75 C 51.894531 -55.507812 54.253906 -53.128906 56.484375 -49.609375 C 58.691406 -46.085938 59.539062 -42 59.03125 -37.34375 C 58.53125 -32.644531 58.125 -27.09375 57.8125 -20.6875 C 57.488281 -13.632812 58.132812 -8.320312 59.75 -4.75 C 59.914062 -4.195312 60.101562 -3.601562 60.3125 -2.96875 C 60.476562 -2.332031 60.53125 -1.703125 60.46875 -1.078125 C 60.425781 0.015625 59.941406 0.96875 59.015625 1.78125 C 58.078125 2.59375 56.6875 3.140625 54.84375 3.421875 C 52.957031 3.691406 51.25 3.546875 49.71875 2.984375 C 48.175781 2.410156 47.078125 1.9375 46.421875 1.5625 C 45.265625 0.84375 44.394531 -0.109375 43.8125 -1.296875 C 43.425781 -2.179688 43.109375 -3.015625 42.859375 -3.796875 C 40.722656 -2.328125 38.925781 -1.3125 37.46875 -0.75 C 34.21875 0.488281 30.78125 1.109375 27.15625 1.109375 C 23.457031 1.035156 19.953125 0.367188 16.640625 -0.890625 C 14.109375 -1.859375 11.800781 -3.109375 9.71875 -4.640625 C 7.644531 -6.117188 6.082031 -7.953125 5.03125 -10.140625 C 4.0625 -12.242188 3.632812 -14.660156 3.75 -17.390625 C 3.90625 -21.285156 5.101562 -24.742188 7.34375 -27.765625 C 8.5 -29.234375 9.585938 -30.597656 10.609375 -31.859375 C 11.585938 -33.097656 13.703125 -34.804688 16.953125 -36.984375 C 20.203125 -39.140625 24.097656 -40.378906 28.640625 -40.703125 C 33.171875 -41.023438 37.960938 -40.492188 43.015625 -39.109375 C 43.179688 -39.390625 43.078125 -40.140625 42.703125 -41.359375 C 42.328125 -42.546875 40.6875 -43.878906 37.78125 -45.359375 Z M 37.78125 -45.359375 "/></g></g></g></g></g></svg>